<?xml version="1.0" standalone="no"?>
<!DOCTYPE svg PUBLIC "-//W3C//DTD SVG 1.1//EN" "http://www.w3.org/Graphics/SVG/1.1/DTD/svg11.dtd" >
<svg xmlns="http://www.w3.org/2000/svg">
<metadata>
Created by FontForge 20120731 at Tue Jul  4 14:52:13 2017
 By admin
</metadata>
<defs>
<font id="iconfont" horiz-adv-x="1024" >
  <font-face 
    font-family="iconfont"
    font-weight="500"
    font-stretch="normal"
    units-per-em="1024"
    panose-1="2 0 6 3 0 0 0 0 0 0"
    ascent="896"
    descent="-128"
    x-height="792"
    bbox="0 -210 1365 896"
    underline-thickness="0"
    underline-position="0"
    unicode-range="U+0078-E9AE"
  />
<missing-glyph 
 />
    <glyph glyph-name=".notdef" 
 />
    <glyph glyph-name=".notdef" 
 />
    <glyph glyph-name=".null" horiz-adv-x="0" 
 />
    <glyph glyph-name="nonmarkingreturn" horiz-adv-x="341" 
 />
    <glyph glyph-name="x" unicode="x" horiz-adv-x="1001" 
d="M281 543q-27 -1 -53 -1h-83q-18 0 -36.5 -6t-32.5 -18.5t-23 -32t-9 -45.5v-76h912v41q0 16 -0.5 30t-0.5 18q0 13 -5 29t-17 29.5t-31.5 22.5t-49.5 9h-133v-97h-438v97zM955 310v-52q0 -23 0.5 -52t0.5 -58t-10.5 -47.5t-26 -30t-33 -16t-31.5 -4.5q-14 -1 -29.5 -0.5
t-29.5 0.5h-32l-45 128h-439l-44 -128h-29h-34q-20 0 -45 1q-25 0 -41 9.5t-25.5 23t-13.5 29.5t-4 30v167h911zM163 247q-12 0 -21 -8.5t-9 -21.5t9 -21.5t21 -8.5q13 0 22 8.5t9 21.5t-9 21.5t-22 8.5zM316 123q-8 -26 -14 -48q-5 -19 -10.5 -37t-7.5 -25t-3 -15t1 -14.5
t9.5 -10.5t21.5 -4h37h67h81h80h64h36q23 0 34 12t2 38q-5 13 -9.5 30.5t-9.5 34.5q-5 19 -11 39h-368zM336 498v228q0 11 2.5 23t10 21.5t20.5 15.5t34 6h188q31 0 51.5 -14.5t20.5 -52.5v-227h-327z" />
    <glyph glyph-name="minus-sign" unicode="&#xe601;" 
d="M508 844q95 0 179 -36.5t146 -98.5t98.5 -145.5t36.5 -178.5t-36.5 -179t-98.5 -146t-146 -98.5t-179 -36.5t-178.5 36.5t-145.5 98.5t-98.5 146t-36.5 179t36.5 178.5t98.5 145.5t145.5 98.5t178.5 36.5zM736 323q31 0 55.5 15.5t24.5 47.5q0 31 -24.5 45.5t-55.5 14.5
h-452q-31 0 -56.5 -14.5t-25.5 -45.5q0 -32 25.5 -47.5t56.5 -15.5h452z" />
    <glyph glyph-name="food" unicode="&#xe616;" 
d="M69 444v-155q0 -49 17 -91t40.5 -67.5t55 -46.5t53.5 -30.5t44 -15.5v-62h468v61q22 7 44 16.5t54 30.5t55 48t40 71t17 96v145h-888zM909 299q0 -37 -10.5 -69t-26 -53.5t-36.5 -39.5t-39 -27.5t-37.5 -17t-27.5 -9.5t-13 -3l-20 -3v-53h-372v52l-19 4q-10 2 -24 6
t-46 19.5t-56.5 37t-44.5 60.5t-20 86v26h792v-16zM909 347h-792v49h792v-49zM440 735h501v-49h-501v49zM85 735h48v-49h-48v49zM85 638h48v-49h-48v49zM440 638h501v-49h-501v49zM142 465q34 7 51.5 29t20.5 44v182q0 14 9 23.5t17 12.5t12 3v49q-28 0 -57 -23.5t-29 -64.5
v-177q-5 -25 -34 -31zM239 465q34 7 51.5 29t20.5 44v182q0 14 9 23.5t17 12.5t12 3v49q-28 0 -57 -23.5t-29 -64.5v-177q-5 -25 -34 -31zM336 465q34 7 51.5 29t20.5 44v182q0 14 9 23.5t17 12.5t12 3v49q-28 0 -57 -23.5t-29 -64.5v-177q-5 -25 -34 -31z" />
    <glyph glyph-name="heal" unicode="&#xe617;" 
d="M748 834h-447q-32 0 -55 -23t-23 -55v-68q0 -32 23 -55t55 -23h447q32 0 55 23t23 55v68q0 32 -23 55t-55 23zM774 688q0 -11 -7.5 -18.5t-18.5 -7.5h-447q-11 0 -18.5 7.5t-7.5 18.5v68q0 11 7.5 18.5t18.5 7.5h447q11 0 18.5 -7.5t7.5 -18.5v-68zM748 593h-447
q-32 0 -55 -23t-23 -55v-482q0 -32 23 -55t55 -23h447q32 0 55 23t23 55v482q0 32 -23 55t-55 23zM774 33q0 -11 -7.5 -18.5t-18.5 -7.5h-447q-11 0 -18.5 7.5t-7.5 18.5v482q0 11 7.5 18.5t18.5 7.5h447q11 0 18.5 -7.5t7.5 -18.5v-482zM617 431q-10 2 -20 2q-42 0 -74 -30
q-32 30 -74 30q-10 0 -20 -2q-30 -5 -51.5 -24t-29.5 -47q-10 -32 0 -65.5t36 -56.5q39 -35 106 -101q11 -12 15 -15l18 -17l18 17l14 14q66 65 107 102q25 23 35 56.5t1 65.5q-8 28 -29.5 47t-51.5 24zM627 276q-42 -37 -104 -99q-64 63 -104 99q-15 14 -21 33t-1 37
q9 29 40 34q6 1 12 1q33 0 52 -31l22 -38l22 38q19 31 52 31q5 0 11 -1q32 -5 40 -34q5 -18 -0.5 -37t-20.5 -33z" />
    <glyph glyph-name="shoes" unicode="&#xe618;" horiz-adv-x="1031" 
d="M779 419h-93q-79 0 -117 41q-36 38 -34 97v187q0 12 -8.5 20.5t-21.5 8.5h-393q-13 0 -21.5 -8.5t-8.5 -20.5v-591q0 -2 1 -5q-1 -3 -1 -4v-79q0 -17 14 -25q9 -15 25 -15h817q13 0 21.5 9t8.5 21v168q0 42 -13.5 76t-34 55t-46.5 36t-49.5 21.5t-45.5 7.5zM141 714h335
v-155q-1 -10 0 -25.5t13 -52t36 -61.5q56 -60 161 -60h91q7 0 16.5 -1.5t32 -10t39.5 -22t30.5 -40.5t13.5 -63v-40h-768v531zM909 84h-768v40h768v-40zM396.5 680q-11.5 0 -19 -8t-7.5 -19t7.5 -19t19 -8t19.5 8t8 19t-8 19t-19.5 8zM396.5 591q-11.5 0 -19 -8t-7.5 -19
t7.5 -19t19 -8t19.5 8t8 19t-8 19t-19.5 8zM396.5 502q-11.5 0 -19 -8t-7.5 -19t7.5 -19t19 -8t19.5 8t8 19t-8 19t-19.5 8z" />
    <glyph glyph-name="jia" unicode="&#xe64b;" 
d="M511.5 818q-90.5 0 -173 -35.5t-142 -95t-94.5 -142t-35 -172.5t35 -172.5t94.5 -142t142 -95t173 -35.5t173 35.5t142 95t94.5 142t35 172.5t-35 172.5t-94.5 142t-142 95t-173 35.5zM511.5 -16q-105.5 0 -195.5 52t-142 141.5t-52 195t52 195.5t142 142t195.5 52
t195 -52t142 -142t52.5 -195.5t-52.5 -195t-142 -141.5t-195 -52zM678 401h-139v139q0 11 -8 19.5t-19.5 8.5t-19.5 -8.5t-8 -19.5v-139h-139q-12 0 -20 -8.5t-8 -20t8 -19.5t20 -8h139v-139q0 -11 8 -19.5t19.5 -8.5t19.5 8.5t8 19.5v139h139q12 0 20 8t8 19.5t-8 20
t-20 8.5z" />
    <glyph glyph-name="liebiao" unicode="&#xe655;" 
d="M969 728h-625q-24 0 -40.5 -16.5t-16.5 -40.5v-28q0 -24 16.5 -40.5t40.5 -16.5h625q23 0 40 16.5t17 40.5v28q0 24 -17 40.5t-40 16.5zM969 359h-625q-24 0 -40.5 -17t-16.5 -40v-29q0 -23 16.5 -39.5t40.5 -16.5h625q23 0 40 16.5t17 39.5v29q0 23 -17 40t-40 17z
M969 -11h-625q-24 0 -40.5 -16.5t-16.5 -40.5v-28q0 -24 16.5 -40.5t40.5 -16.5h625q23 0 40 16.5t17 40.5v28q0 24 -17 40.5t-40 16.5zM88 728h-29q-23 0 -39.5 -16.5t-16.5 -40.5v-28q0 -24 16.5 -40.5t39.5 -16.5h29q23 0 40 16.5t17 40.5v28q0 24 -17 40.5t-40 16.5z
M88 -11h-29q-23 0 -39.5 -16.5t-16.5 -40.5v-28q0 -24 16.5 -40.5t39.5 -16.5h29q23 0 40 16.5t17 40.5v28q0 24 -17 40.5t-40 16.5zM88 359h-29q-23 0 -39.5 -17t-16.5 -40v-29q0 -23 16.5 -39.5t39.5 -16.5h29q23 0 40 16.5t17 39.5v29q0 23 -17 40t-40 17z" />
    <glyph glyph-name="baby" unicode="&#xe61a;" 
d="M143 415v-397q0 -34 24 -58t58 -24h575q27 0 48.5 16t29.5 41h3v422q0 30 -19.5 53t-49.5 27q26 33 26 75v9q0 51 -36 87t-87 36h-131q-4 0 -4 4v53q0 29 -21 50.5t-51 21.5t-51.5 -21.5t-21.5 -50.5v-53q0 -4 -3 -4h-131q-51 0 -87.5 -36t-36.5 -87v-9q0 -43 27 -77
q-26 -6 -43.5 -28t-17.5 -50v0zM301 653h131q22 0 37 15.5t15 37.5v53q0 9 7 16t16.5 7t16.5 -7t7 -16v-53q0 -22 15.5 -37.5t37.5 -15.5h131q30 0 52 -21.5t22 -52.5v-9q0 -29 -20.5 -50.5t-50.5 -23.5h-421q-30 2 -50.5 23.5t-20.5 51.5v8q0 31 22 52.5t53 21.5zM301 447
h414h1.5h1.5h82q13 0 23 -9.5t10 -22.5l-1 -397q0 -14 -9.5 -23.5t-22.5 -9.5h-575q-14 0 -23.5 9.5t-9.5 23.5v397q0 13 9.5 22.5t23.5 9.5h72h2h2zM248 300h159q8 0 13 5.5t5 13t-5 13t-13 5.5h-159q-8 0 -13 -5.5t-5 -13t5 -13t13 -5.5zM248 88h159q8 0 13 5.5t5 13
t-5 12.5t-13 5h-159q-8 0 -13 -5t-5 -12.5t5 -13t13 -5.5zM248 194h269q7 0 12.5 5.5t5.5 13t-5.5 13t-12.5 5.5h-269q-8 0 -13 -5.5t-5 -13t5 -13t13 -5.5z" />
    <glyph glyph-name="read" unicode="&#xe60e;" 
d="M148 759v-750q0 -31 21 -53t52 -22h610q19 0 32 13.5t13 33t-13 33.5t-32 14h-556q-15 0 -25.5 11t-10.5 26.5t10.5 26.5t25.5 11h528q31 0 52 22t21 53v581q0 31 -21 53t-52 22h-255v-337q0 -8 -5 -14q-5 -5 -12.5 -5t-13.5 5l-78 68q-73 -63 -78 -68t-13 -5t-13 5
q-5 6 -5 14v337h-109q-31 0 -52 -22t-21 -53z" />
    <glyph glyph-name="edit1" unicode="&#xe64e;" 
d="M508 239l58 59l-76 76l-58 -58v-28h48v-49h28zM729 601q-8 8 -17 -1l-175 -175q-9 -9 -1 -17t17 1l175 175q9 9 1 17zM769 303v-96q0 -60 -42.5 -102t-102.5 -42h-417q-60 0 -102.5 42t-42.5 102v418q0 60 42.5 102.5t102.5 42.5h417q32 0 59 -13q8 -3 9 -11q2 -9 -4 -15
l-25 -25q-7 -7 -16 -4q-11 3 -23 3h-417q-34 0 -57.5 -23.5t-23.5 -56.5v-418q0 -33 23.5 -56.5t57.5 -23.5h417q34 0 57.5 23.5t23.5 56.5v63q0 7 4 12l33 32q7 7 17 3t10 -14v0zM721 673l145 -144l-338 -338h-145v145zM944 607l-46 -46l-145 144l46 47q14 14 34 14t35 -14
l76 -77q14 -14 14 -34t-14 -34v0z" />
    <glyph glyph-name="spot" unicode="&#xe67c;" 
d="M512 603q-91 0 -155 -64t-64 -155t64 -155t155 -64t155 64t64 155t-64 155t-155 64z" />
    <glyph glyph-name="home" unicode="&#xe660;" 
d="M736 228v0l-203 203q-9 9 -21 9t-20 -9l-253 -252v-273h182v162q0 27 19.5 46.5t46.5 19.5h50q28 0 47 -19.5t19 -46.5v-162h182v273v0zM956 238l-412 421v0q-12 9 -28 11h-1h-4h-3h-1q-16 -2 -28 -11v0l-413 -421q-3 -4 -1 -9t7 -5h120q2 0 4 2l315 307v0h1l315 -307
q1 -2 4 -2h120q5 0 7 5t-2 9z" />
    <glyph glyph-name="package" unicode="&#xe64d;" 
d="M885 671h-38q27 43 24 82q-4 43 -47 71q-44 29 -108 13q-52 -13 -108.5 -54.5t-95.5 -95.5q-39 54 -95.5 95.5t-108.5 54.5q-64 16 -108 -13q-43 -28 -47 -71q-3 -39 24 -82h-38q-35 0 -60.5 -25.5t-25.5 -60.5v-115q0 -29 18 -52t46 -31q-6 -15 -6 -32v-344
q0 -35 25 -60.5t61 -25.5h315v0v0h315q36 0 61 25.5t25 60.5v344q0 17 -6 32q28 8 46 31t18 52v115q0 35 -25.5 60.5t-60.5 25.5zM730 782q39 10 63 -6q19 -12 20 -29q2 -18 -11.5 -40.5t-27.5 -35.5h-202q34 40 77 70.5t81 40.5zM211 747q1 17 20 29q24 15 63 6
q38 -10 81 -40.5t77 -70.5h-202q-14 13 -27.5 35.5t-11.5 40.5zM111 585q0 12 8 20t20 8h344v-172h-344q-12 0 -20 8.5t-8 20.5v115zM168 11v344q0 12 8.5 20.5t20.5 8.5h286v-401h-286q-12 0 -20.5 8.5t-8.5 19.5v0zM856 11q0 -11 -8.5 -19.5t-20.5 -8.5h-286v401h286
q12 0 20.5 -8.5t8.5 -20.5v-344v0zM913 470q0 -12 -8 -20.5t-20 -8.5h-344v172h344q12 0 20 -8t8 -20v-115z" />
    <glyph glyph-name="plus" unicode="&#xe637;" 
d="M949 420h-401v401h-72v-401h-401v-72h401v-401h72v401h401v72z" />
    <glyph glyph-name="gou" unicode="&#xe666;" 
d="M840 688l-470 -470l-186 185q-21 21 -50.5 21t-50 -21t-20.5 -50t21 -50l222 -223q23 -22 64 -20q41 -2 64 20l506 507q21 21 21 50.5t-20.5 50t-50 20.5t-50.5 -20z" />
    <glyph glyph-name="car" unicode="&#xe651;" 
d="M949 327q-2 36 -24 66.5t-56 45.5l-41 191q-11 53 -57 90t-99 37h-321q-53 0 -99 -37t-57 -90l-41 -191q-34 -15 -56 -45.5t-24 -66.5l-9 -123q-3 -39 17 -72t56 -47q8 -32 34 -52.5t60 -20.5q31 0 56 17.5t35 46.5h377q10 -29 35 -46.5t56 -17.5q34 0 60 20.5t35 52.5
q35 14 55 47t18 72zM855 132q-20 -4 -21 -25q-1 -17 -13.5 -29t-29.5 -12q-16 0 -28.5 11.5t-13.5 27.5q-1 11 -9 18t-18 7h-421q-10 0 -18 -7t-9 -18q-1 -16 -13.5 -27.5t-28.5 -11.5q-17 0 -29.5 12t-13.5 29q-1 21 -21 25q-23 6 -37 25t-12 43l9 123q2 24 18.5 43.5
t40.5 26.5q17 5 19 23v5l1 2l41 196q8 34 38.5 58.5t64.5 24.5h321q34 0 64.5 -24.5t38.5 -58.5l41 -196l1 -2v-5q2 -18 19 -23q24 -7 40.5 -26.5t18.5 -43.5l9 -123q2 -24 -12 -43t-37 -25zM301 413h421q16 0 24 10q9 11 7 26v2l-33 144q-4 17 -18.5 29.5t-31.5 12.5h-317
q-17 0 -31.5 -12.5t-18.5 -29.5l-33 -144v-2q-2 -15 6 -25q9 -11 25 -11zM357 582h309l27 -114h-363zM268 320q-26 0 -44 -18.5t-18 -44t18 -43.5t44 -18t44 18t18 43.5t-18 44t-44 18.5zM755.5 320q-25.5 0 -44 -18.5t-18.5 -44t18.5 -43.5t44 -18t43.5 18t18 43.5t-18 44
t-43.5 18.5z" />
    <glyph glyph-name="xia" unicode="&#xe6cd;" 
d="M919 715l-45 44l-362 -397l-354 397l-48 -39l402 -447zM512 -91l-354 398l-48 -40l402 -446l407 442l-45 44z" />
    <glyph glyph-name="image" unicode="&#xe661;" 
d="M873 776h-724q-35 0 -59.5 -24.5t-24.5 -59.5v-613q0 -35 24.5 -59.5t59.5 -24.5h724q35 0 59.5 24.5t24.5 59.5v613q0 35 -24.5 59.5t-59.5 24.5v0zM149 720h724q12 0 20 -8.5t8 -19.5v-328q-105 86 -216 86q-31 0 -62.5 -10t-67.5 -32.5t-59 -39.5t-64 -49
q-42 -33 -65 -50t-55 -34t-54 -17q-70 0 -137 65v409q0 11 8 19.5t20 8.5v0zM873 51h-724q-12 0 -20 8t-8 20v132q68 -48 137 -48q24 0 48.5 8t54.5 27.5t49.5 33.5t55.5 43q38 30 58.5 45t52.5 35.5t58 30t50 9.5q34 0 68.5 -11.5t58.5 -25.5t47 -32t30.5 -26t11.5 -12v0
v-209q0 -12 -8 -20t-20 -8v0v0zM344 385q46 0 78.5 33t32.5 79t-32.5 78.5t-79 32.5t-79 -32.5t-32.5 -78.5t32.5 -79t79.5 -33v0zM344 553q23 0 39.5 -16.5t16.5 -39.5t-16.5 -39.5t-39.5 -16.5t-39.5 16.5t-16.5 39.5t16.5 39.5t39.5 16.5v0zM344 553z" />
    <glyph glyph-name="home-store" unicode="&#xe63f;" 
d="M900 424l-361 319q-8 7 -19.5 7t-20.5 -7l-361 -319q-16 -14 -8.5 -34t29.5 -20h58v-171q0 -55 39 -94t94 -39h229h2q33 1 56.5 25t23.5 57v149q0 33 -24 57t-58 24h-120q-33 0 -57.5 -24t-24.5 -57v-96q0 -13 9 -22t22 -9t22 9t9 22v96q0 8 6 14t14 6h120q8 0 14 -6
t6 -14v-149q0 -8 -6 -14t-14 -6h-229q-29 0 -50 21t-21 50v202q0 12 -9 21t-22 9h-8l279 248l280 -248h-9q-12 0 -21 -9t-9 -21v-202q0 -39 -34 -60q-11 -7 -13.5 -19.5t4 -23t19 -13.5t23.5 4q29 18 45.5 48t16.5 64v171h59q21 0 28.5 20t-8.5 34z" />
    <glyph glyph-name="info-sign" unicode="&#xe78a;" 
d="M512 834q-186 0 -318 -132t-132 -318t132 -318t318 -132t318 132t132 318t-132 318t-318 132zM467 643q0 18 13 31.5t32 13.5t32 -13.5t13 -31.5v-360q0 -19 -13 -32t-32 -13t-32 13t-13 32v360zM512 66q-23 0 -39.5 16.5t-16.5 40t16.5 40t39.5 16.5t39.5 -16.5
t16.5 -40t-16.5 -40t-39.5 -16.5z" />
    <glyph glyph-name="remove-alt" unicode="&#xe7de;" 
d="M367 96v468q0 10 -7.5 17.5t-17.5 7.5t-17.5 -7.5t-7.5 -17.5v-468q0 -10 7.5 -17.5t17.5 -7.5t17.5 7.5t7.5 17.5zM873.5 610q-10.5 0 -18 -7.5t-7.5 -17.5v-574q0 -16 -11 -27t-27 -11h-595q-16 0 -27.5 11t-11.5 27v574q0 10 -7.5 17.5t-17.5 7.5q-16 0 -23 -14l-2 1
v-586q0 -36 26 -62t63 -26h595q36 0 62 26t26 62v574q0 10 -7 17.5t-17.5 7.5zM537 96v468q0 10 -7.5 17.5t-17.5 7.5t-17.5 -7.5t-7.5 -17.5v-468q0 -10 7.5 -17.5t17.5 -7.5t17.5 7.5t7.5 17.5zM707 96v468q0 10 -7.5 17.5t-17.5 7.5t-17.5 -7.5t-7.5 -17.5v-468
q0 -10 7.5 -17.5t17.5 -7.5t17.5 7.5t7.5 17.5zM937 759h-243l-77 77q-8 8 -19 8h-172q-11 0 -18 -8l-78 -77h-243q-10 0 -17.5 -7.5t-7.5 -17.5t7.5 -17.5t17.5 -7.5h257q11 0 18 8l78 77h145l77 -77q8 -8 19 -8v0h256q11 0 18 7.5t7 17.5t-7 17.5t-18 7.5z" />
    <glyph glyph-name="clothes" unicode="&#xe61c;" 
d="M937 706l-227 64q-14 4 -26 -4t-14 -22q-10 -58 -54.5 -95.5t-103.5 -37.5q-35 0 -79 27q-12 7 -24.5 4t-19.5 -14.5t-4 -24t14 -19.5q60 -37 113 -37q73 0 131 42t81 110l172 -48v-225l-122 24q-14 3 -26 -6q-12 -10 -12 -25v-353q0 -13 -9.5 -22.5t-22.5 -9.5h-384
q-13 0 -22.5 9.5t-9.5 22.5v385q0 15 -12 25q-12 9 -26 6l-122 -24v193l201 57q12 4 18.5 15.5t3 24.5t-15 19t-24.5 3l-224 -64q-10 -3 -16.5 -11.5t-6.5 -19.5v-256q0 -15 11.5 -25t26.5 -7l122 25v-346q0 -39 28 -67.5t68 -28.5h384q40 0 68 28.5t28 67.5v314l122 -25
q15 -3 26.5 7t11.5 25v288q0 11 -6.5 19.5t-16.5 11.5zM320 130.5q0 -13.5 9.5 -22.5t22.5 -9h320q13 0 22.5 9t9.5 22.5t-9.5 23t-22.5 9.5h-320q-13 0 -22.5 -9.5t-9.5 -23z" />
    <glyph glyph-name="password" unicode="&#xe644;" 
d="M813 527h-81q0 96 -64.5 161.5t-159 65.5t-159 -65.5t-64.5 -161.5h-81q0 76 40.5 147t111.5 115.5t152.5 44.5t152.5 -44.5t111.5 -115.5t40.5 -147v0zM914 395q0 33 -23.5 56.5t-56.5 23.5h-642q-34 0 -57.5 -23.5t-23.5 -56.5v-381q0 -33 23.5 -56.5t57.5 -23.5h642
q33 0 56.5 23.5t23.5 56.5v381v0zM576 97q0 -25 -17.5 -42.5t-42.5 -17.5h-8q-25 0 -43 17.5t-18 42.5v163q0 25 18 42.5t43 17.5h8q25 0 42.5 -17.5t17.5 -42.5v-163zM576 97z" />
    <glyph glyph-name="cate" unicode="&#xe696;" 
d="M370 896h-255q-47 0 -81 -33.5t-34 -81.5v-255q0 -48 34 -81.5t81 -33.5h255q48 0 82 33.5t34 81.5v255q0 48 -34 81.5t-82 33.5zM909 896h-255q-48 0 -81.5 -33.5t-33.5 -81.5v-255q0 -48 33.5 -81.5t81.5 -33.5h255q47 0 81 33.5t34 81.5v255q0 48 -34 81.5t-81 33.5z
M964 526q0 -23 -16 -39t-39 -16h-255q-23 0 -39 16t-16 39v255q0 23 16 39t39 16h255q23 0 39 -16t16 -39v-255zM370 358h-255q-47 0 -81 -34t-34 -81v-256q0 -47 34 -81t81 -34h255q48 0 82 34t34 81v256q0 47 -34 81t-82 34zM425 -13q0 -23 -16 -39t-39 -16h-255
q-23 0 -39 16t-16 39v256q0 23 16 38.5t39 15.5h255q24 0 39.5 -15.5t15.5 -38.5v-256v0zM909 358h-255q-48 0 -81.5 -34t-33.5 -81v-256q0 -47 33.5 -81t81.5 -34h255q47 0 81 34t34 81v256q0 47 -34 81t-81 34zM964 -13q0 -23 -16 -39t-39 -16h-255q-23 0 -39 16t-16 39
v256q0 23 16 38.5t39 15.5h255q23 0 39 -15.5t16 -38.5v-256z" />
    <glyph glyph-name="carts" unicode="&#xe61b;" 
d="M333 27q-30 0 -51 -21t-21 -50.5t21 -50.5t50.5 -21t50.5 21t21 50.5t-21 50.5t-50 21v0v0v0zM833 27q-29 0 -50 -21t-21 -50.5t21 -50.5t50.5 -21t50.5 21t21 50.5t-21 50.5t-51 21v0v0v0zM904 63h-581q-38 0 -68 27t-35 66l-61 427l-34 200q-2 13 -12 22.5t-22 9.5h-45
q-15 0 -25.5 10.5t-10.5 25.5t10.5 25t25.5 10h45q39 0 69.5 -26.5t35.5 -65.5l34 -199l61 -430q2 -12 11.5 -21t20.5 -9h581q15 0 25.5 -10.5t10.5 -25.5t-10.5 -25.5t-25.5 -10.5v0v0v0zM368 206q-14 0 -24.5 9.5t-11.5 24.5q-1 14 9 25.5t24 12.5l486 36q13 0 23 9t12 21
l56 322q2 21 -9 34q-7 8 -17 8h-620q-15 0 -25.5 10.5t-10.5 25t10.5 25t25.5 10.5h620q42 0 70 -32q33 -37 27 -91l-57 -323q-4 -38 -34 -64.5t-69 -26.5l-482 -36h-3v0v0z" />
    <glyph glyph-name="reduce" unicode="&#xe63b;" 
d="M79 422h866v-79h-866v79z" />
    <glyph glyph-name="share" unicode="&#xe656;" 
d="M841 872q66 -25 95.5 -89t5.5 -130t-88 -96t-130.5 -5.5t-96 88.5t-5.5 130t88 96t131 6v0zM279 518q61 -22 88.5 -81t5 -120.5t-81.5 -89t-120.5 -5t-89 81.5t-5 120.5t81.5 89t121 4.5v0zM862 166q56 -21 81 -75t4.5 -110t-74.5 -81.5t-110 -5t-81.5 75t-5 110.5t75 81
t110.5 5v0zM284 322l29 44l497 -322l-29 -44zM793 766l30 -44l-559 -382l-30 43zM793 766z" />
    <glyph glyph-name="store" unicode="&#xe612;" 
d="M881 653h-740l-77 -201q0 -45 32.5 -77.5t78.5 -32.5q47 0 80 32t33 78q0 -45 32.5 -77.5t78.5 -32.5q47 0 80 32t33 78q0 -45 32.5 -77.5t78.5 -32.5q47 0 79.5 32t32.5 78q0 -45 33 -77.5t79 -32.5q47 0 80 32t33 78zM819 307v-256h-614v256h-26h-38v-269
q0 -17 15.5 -34t32.5 -17h644q17 0 33 17t16 34v269h-51h-12zM881 654v0v0zM192 704h640q16 0 27 11t11 27.5t-11 27.5t-27 11h-640q-16 0 -27 -11t-11 -27.5t11 -27.5t27 -11z" />
    <glyph glyph-name="tel-alt" unicode="&#xe671;" 
d="M103 728q-13 -15 -23 -44t-11.5 -83.5t15 -116.5t69.5 -148.5t138 -174.5q66 -67 130.5 -115t116 -72t100 -35.5t83.5 -10.5t65 9t46.5 17t25.5 19l-252 251q-2 -1 -5 -5q-13 -13 -20.5 -18t-21.5 -8t-32 6t-43 29q-87 71 -154 154q-11 14 -14.5 25.5t1.5 23t11 18.5
t20 21l6 6zM197 822l-63 -63l252 -251l63 63q13 13 13 31t-13 32l-189 188q-13 13 -31.5 13t-31.5 -13zM701 319l-63 -63l251 -252l63 63q13 13 13 31.5t-13 31.5l-189 189q-13 13 -31 13t-31 -13z" />
    <glyph glyph-name="mobile-phone-alt" unicode="&#xe63a;" 
d="M847 53q0 -25 -11 -46t-30 -38q-19 -16 -45 -26q-26 -9 -55 -9h-388q-29 0 -55 9q-26 10 -45 26q-19 17 -30 38t-11 46v661q0 25 11 47t30 38t45 25q26 10 55 10h388q29 0 55 -10q26 -9 45 -25t30 -38t11 -47v-661v0zM758 667h-494v-566h494v566zM511 73q-22 0 -39 -14
q-17 -15 -17 -37q0 -21 17 -36t39 -15q24 0 40.5 15t16.5 36q0 22 -16 37q-17 14 -41 14zM599 751q0 8 -5.5 12.5t-12.5 4.5h-138q-6 0 -12 -4.5t-6 -12.5t6 -12q5 -5 12 -5h138q7 0 12.5 4.5t5.5 12.5z" />
    <glyph glyph-name="tel" unicode="&#xe65c;" 
d="M273 795q16 -20 61 -79t70 -91l0.5 -1t1.5 -1q9 -13 13 -28t2 -33q-2 -17 -11 -32q-1 0 -2 -2q-8 -14 -21 -23q-1 -1 -2 -1q-2 -1 -63 -47q-12 -26 8 -55q40 -58 94 -113v0q52 -53 111 -95q29 -20 55 -9q28 40 48 67v0q10 14 24 22.5t31 11.5h1q15 2 32 -2h1.5t0.5 -1
q15 -4 28 -14q24 -19 80.5 -63.5t87.5 -68.5l3 -3q13 -10 20 -25q8 -17 9 -35q1 -19 -6 -36q-8 -18 -21 -29q-17 -17 -40 -31q-1 -1 -2 -1q-26 -16 -55 -25q-133 -45 -285 6q-151 51 -275 177q-125 126 -175 278q-51 154 -6 290q10 30 26 57v0v0q11 20 30 41q12 14 29 20
l2 2h1q17 6 32 4q21 0 33 -7t29 -25v0zM350 583v0l-130 170v0q-2 3 -4 4q-1 0 -1 1q-5 1 -6 1h-6q0 -1 -1 -1q-5 -3 -6 -4q-10 -11 -21 -29v0q-11 -17 -20 -43q-37 -114 6 -247q46 -137 159 -251q112 -114 248 -161q131 -43 243 -6q23 8 42 19l1 1q18 11 29 22q2 2 4 5v0
q1 2 1 7q0 4 -2 7v0l-2 3q-1 0 -2 1q-118 93 -168 133v0l-2 1l-2 1h-1q-4 2 -6 1v0q-3 -1 -6 -3v0q-2 0 -4 -3v0q-38 -52 -52 -72q-4 -7 -11 -10q-3 -2 -7.5 -4.5t-18.5 -7.5t-29 -5.5t-36.5 5.5t-42.5 20q-65 46 -121 102v0q-57 60 -100 123q-15 20 -21 42t-4.5 37.5
t5 28.5t7.5 20l4 7q4 7 9 10q37 28 70 51l2 2l4 4v0v0q1 1 2 6v6q-1 3 -2 5l-0.5 0.5l-0.5 0.5v0z" />
    <glyph glyph-name="jiubei" unicode="&#xe652;" 
d="M692 262q18 22 31 48v1l8 16q0 1 0.5 2.5l0.5 1.5q4 8 7 17q0 1 0.5 2t0.5 2q9 30 13 60v0.5v0.5v0q2 20 2 35q0 40 -6 109t-14 92h-446q-8 -23 -14 -92t-6 -109q0 -83 39.5 -151.5t104.5 -101.5h-1l9 -4.5t18 -11.5t22.5 -18.5t18 -23.5t8.5 -28v-85q0 -25 -77 -56
q-61 -24 -67 -31q-4 -5 2 -10h345q11 9 -21 22q-10 4 -34 13q-86 31 -97 52q-3 5 -3 10v85q0 11 4.5 21t11 18t14.5 15.5t16 13t14.5 9.5t11 6.5l4.5 2.5h-1h1h1q1 1 6 4q8 4 13 7l0.5 0.5l1.5 1.5q14 9 27 20l1 1l1 1l11 11l2.5 2.5t1.5 2.5q8 8 11 12q1 1 3 4zM317 448
q0 121 8 152h374q7 -30 7 -152q0 19 -1 19t-1 -2h-336q7 -65 33.5 -136.5t61.5 -101.5q-63 19 -104.5 80.5t-41.5 140.5z" />
    <glyph glyph-name="share-alt" unicode="&#xe6a1;" 
d="M801 -36h-589q-49 0 -83.5 34.5t-34.5 83.5v589q0 50 36 91t84 41h329v-60h-329q-25 0 -42.5 -17.5t-17.5 -42.5l-1 -601q0 -25 17 -42t42 -17l601 1q25 0 42.5 17.5t17.5 42.5v330h60v-330q0 -48 -41 -84t-91 -36zM903 533q-13 0 -21.5 9t-8.5 21l-1 144l-456 -435
q-9 -9 -21.5 -9t-21.5 8.5t-9 20.5t9 21l452 431l-132 -1q-12 0 -21 9t-9 21t9 21t21 9h209q13 0 22 -8.5t9 -20.5v-211q0 -12 -8.5 -21t-21.5 -9z" />
    <glyph glyph-name="mobile-phone" unicode="&#xe648;" 
d="M710 834h-394q-34 0 -59 -25t-25 -60v-730q0 -35 25 -60t59 -25h394q35 0 59.5 25t24.5 60v730q0 35 -24.5 60t-59.5 25zM401 791h224v-28h-224v28zM513 -9q-23 0 -39.5 16.5t-16.5 39.5t16.5 39.5t39.5 16.5t39.5 -16.5t16.5 -39.5t-16.5 -39.5t-39.5 -16.5zM738 159
h-450v562h450v-562z" />
    <glyph glyph-name="zan-alt" unicode="&#xe631;" 
d="M509 -31q-8 0 -14 3q-50 25 -123.5 84t-141.5 135q-77 85 -120 166q-51 95 -51 174q0 132 93 205q35 27 81 43t91 16q57 0 116 -35q36 -21 69 -51q32 30 68 51q59 35 116 35q46 0 91.5 -16t81.5 -43q93 -73 93 -205q0 -79 -51 -174q-44 -81 -120 -166q-68 -76 -142 -135
t-123 -84q-7 -3 -14 -3zM324 734q-33 0 -66.5 -11.5t-65.5 -34t-52 -63.5t-20 -94t29 -116.5t73.5 -120t98 -110t102 -91.5t86.5 -59q37 21 86 59t102.5 91.5t97.5 110t73 120t29 116.5t-20 94t-51.5 63.5t-65.5 34t-67 11.5q-52 0 -110 -43q-30 -22 -50 -45v-1h-1
q-9 -11 -23 -11t-24 11v0v0q-4 5 -10.5 11.5t-24 21.5t-35.5 26.5t-43 20.5t-48 9z" />
    <glyph glyph-name="shuiguo" unicode="&#xe674;" 
d="M312 641q42 -14 80.5 -10t65 14t29 16.5t-10.5 30.5t-43 53.5t-67 43.5q-42 14 -81 10.5t-65 -13.5t-29 -17q-3 -10 9.5 -34t43.5 -52t68 -42v0zM369 400zM530 537q-9 0 -15.5 5.5t-6.5 14.5q-2 26 1.5 54.5t15 62t30.5 61t52.5 49t76.5 28.5q9 1 16.5 -4.5t8.5 -14
t-4 -16t-14 -9.5q-36 -5 -63 -22.5t-40 -40t-23 -47.5t-11 -46t-3 -36t1 -16q0 -9 -6 -16t-15 -7h-1zM682 550q-9 0 -22 -2.5t-28.5 -8t-28.5 -10t-32 -12.5t-28 -12t-26.5 -12t-19.5 -9q-147 66 -190 66q-84 0 -143 -43.5t-85.5 -113.5t-26.5 -160q0 -33 8 -70
q26 -160 149 -266.5t287 -106.5q163 0 286 105.5t150 264.5q9 39 9 73q0 90 -27.5 160t-87 113.5t-144.5 43.5zM317 423q-5 -3 -12.5 -9t-24.5 -25t-30.5 -42.5t-25.5 -63.5t-14 -86q0 -11 -8 -19t-19 -8q-1 0 -1 1q-12 0 -19.5 8.5t-7.5 19.5q3 55 17.5 103t31.5 76
t39 51.5t31 30t16 10.5q9 6 20 3t17 -12.5t3 -20.5t-13 -17z" />
    <glyph glyph-name="ok" unicode="&#xe60f;" 
d="M512 834q-122 0 -225.5 -60.5t-164 -164t-60.5 -225.5t60.5 -225.5t164 -164t225.5 -60.5t225.5 60.5t164 164t60.5 225.5t-60.5 225.5t-164 164t-225.5 60.5zM501 148q-17 -17 -42.5 -17t-42.5 17l-196 191q-17 17 -17 42t16.5 42t42 17t42.5 -17l152 -146l292 287
q17 17 42.5 17t42.5 -17t17 -42.5t-17 -41.5z" />
    <glyph glyph-name="left-alt" unicode="&#xe6a4;" 
d="M948 403h-826l324 324q5 5 5 13t-5.5 13.5t-13.5 5.5t-13 -6l-353 -353q-9 -6 -9 -16q0 -6 5 -12h-1l1 -1v0l357 -357q5 -5 13 -5t13.5 5.5t5.5 13.5t-5 13l-324 324h826q8 0 13.5 6t5.5 13.5t-5.5 13t-13.5 5.5z" />
    <glyph glyph-name="zan" unicode="&#xe668;" 
d="M513 -23q-12 0 -78 50.5t-146 124t-121 126.5q-45 41 -77 108.5t-32 122.5q0 116 73.5 198t178.5 82q59 0 111.5 -41t89.5 -102q37 61 89.5 102t111.5 41q105 0 178.5 -82t73.5 -198q0 -55 -32 -122.5t-78 -109.5q-41 -53 -120 -126.5t-144 -123.5t-78 -50v0v0zM311 741
q-85 0 -145 -68t-60 -164q0 -46 28.5 -104.5t67.5 -92.5q1 -2 3 -3q39 -52 109.5 -116.5t115 -99t83.5 -63.5q37 27 84 64.5t115 100.5t107 113q1 2 3 3q39 35 67.5 93.5t28.5 104.5q0 96 -60 164t-145 68q-51 0 -100 -45.5t-79 -109.5q-6 -13 -22 -13t-22 13
q-30 64 -79 109.5t-100 45.5v0zM311 741z" />
    <glyph glyph-name="switch" unicode="&#xe679;" 
d="M456 736h-1v0h-7q-1 0 -3.5 -1t-4.5 -1h-2q-125 -25 -205.5 -123.5t-80.5 -226.5t82 -227t207 -123h6q14 0 23 10.5t6 26.5q-4 18 -23 22q-105 20 -173 102.5t-68 188.5q0 62 24 118q5 10 10 10t9 -8q2 -3 13 -26t16 -34q9 -18 19 -18q11 0 17 19q12 47 32.5 89t39 67
t39.5 45t28.5 26t12.5 8q20 12 14 35q-7 22 -30 21zM567 34v0v0q4 -1 7 0q2 0 4.5 0.5t3.5 1.5h2q125 25 205.5 123t80.5 226q0 129 -81.5 228t-207.5 123h-6q-14 0 -23 -11t-6 -26q4 -18 24 -22q104 -20 172 -102.5t68 -189.5q0 -61 -24 -118q-4 -9 -9.5 -9t-9.5 8
q-1 3 -12 26t-17 34q-9 18 -19 18q-11 0 -16 -19q-13 -48 -33.5 -90t-39 -66.5t-39 -45t-28.5 -26t-12 -8.5q-21 -11 -14 -34q6 -22 30 -21v0z" />
    <glyph glyph-name="makeup" unicode="&#xe61d;" 
d="M511.5 -60q-105.5 0 -193 33t-138 90.5t-50.5 127t50.5 127t138 90.5t193 33t193 -33t138 -90.5t50.5 -127t-50.5 -127t-138 -90.5t-193 -33zM511.5 367q-81.5 0 -152.5 -24t-112.5 -64.5t-41.5 -88t41.5 -88t112.5 -64.5t152.5 -24t152.5 24t112.5 64.5t41.5 88
t-41.5 88t-112.5 64.5t-152.5 24zM511.5 53q-110.5 0 -184.5 39.5t-74 98t74 98t184.5 39.5t184.5 -39.5t74 -98t-74 -98t-184.5 -39.5zM511.5 266q-83.5 0 -140 -25t-56.5 -50.5t56.5 -50.5t140 -25t140 25t56.5 50.5t-56.5 50.5t-140 25zM780 411q-19 0 -30 15
q-9 12 -7 27t14 25q61 47 61 104q0 47 -41.5 88t-112.5 65t-152.5 24t-152.5 -24t-112.5 -65t-41.5 -88q0 -57 61 -104q12 -10 14 -25t-7.5 -27.5t-24.5 -14t-27 7.5q-91 70 -91 163q0 69 50.5 127t138 91t193 33t193 -33t138 -91t50.5 -127q0 -93 -91 -163q-10 -8 -22 -8z
" />
    <glyph glyph-name="jinkou" unicode="&#xe75e;" 
d="M512 810q-115 0 -213 -57t-154.5 -155t-56.5 -213t56.5 -213t154.5 -154.5t213 -56.5t213 56.5t155 154.5t57 213t-57 213t-155 155t-213 57zM784 126q-8 27 -30.5 44t-51.5 17q-35 0 -60.5 -25t-25.5 -61q0 -40 32 -66q-66 -26 -136 -26q-144 0 -251 96.5t-122 238.5
q26 9 42.5 31t16.5 50q0 24 -12 43.5t-32 31.5q10 29 24 58q38 -47 94 -63q-38 -38 -38 -92t38 -92t92 -38q37 0 68 19.5t48 51.5q31 -10 64 -10q90 0 154 64t64 154q0 50 -21 93.5t-57 73.5q93 -47 148.5 -136.5t55.5 -197.5q0 -74 -27.5 -140.5t-76.5 -118.5z" />
    <glyph glyph-name="comment" unicode="&#xe642;" horiz-adv-x="1093" 
d="M663 114q-25 0 -57.5 -9t-54.5 -21l-206 -121q-43 -25 -68 -7.5t-18 66.5l8 62q2 12 -5.5 21t-19.5 9h-60q-50 0 -85 35t-35 84v481q0 50 35 85t85 35h720q50 0 85 -35t35 -85v-481q0 -49 -35 -84t-85 -35h-239zM272 173q25 0 40 -17t11 -42l-10 -65q-4 -25 8 -32.5
t33 5.5l183 119q21 13 53 22.5t57 9.5h256q25 0 42.5 17.5t17.5 42.5v481q0 25 -18 42.5t-42 17.5h-721q-25 0 -42.5 -17.5t-17.5 -42.5v-481q0 -25 17.5 -42.5t43.5 -17.5h89zM302 384q25 0 42.5 17.5t17.5 42.5t-17.5 42.5t-42.5 17.5t-42.5 -17.5t-17.5 -42.5t17.5 -42.5
t42.5 -17.5zM542 384q25 0 42.5 17.5t17.5 42.5t-17.5 42.5t-42.5 17.5t-42.5 -17.5t-17.5 -42.5t17.5 -42.5t42.5 -17.5zM782 384q25 0 42.5 17.5t17.5 42.5t-17.5 42.5t-42.5 17.5t-42.5 -17.5t-17.5 -42.5t17.5 -42.5t42.5 -17.5z" />
    <glyph glyph-name="rotate" unicode="&#xe627;" 
d="M736 762h140q12 0 20 8t8 19t-8 19t-20 8h-281v-271q0 -11 8.5 -19t20 -8t20 8t8.5 19v192q110 -42 181.5 -138.5t71.5 -213.5q0 -103 -52.5 -190t-143 -138t-197 -51t-197.5 51t-144 138t-53 190q0 143 95 250t242 127h28q12 0 20 8t8 19t-8 19t-20 8h-28
q-111 -13 -201 -73.5t-141 -154.5t-51 -203q0 -88 36 -168t96 -138t143.5 -92.5t174.5 -34.5t174.5 34.5t143.5 92.5t96 138t36 168q0 115 -62.5 216t-163.5 161v0z" />
    <glyph glyph-name="order" unicode="&#xe611;" 
d="M771 405q-1 19 -13.5 31t-30.5 12h-430q-18 0 -30.5 -13t-12.5 -30.5t12.5 -30.5t30.5 -13h432q17 0 29.5 13t12.5 30v1zM413 747h201q14 0 21.5 1t17 4t13.5 11t4 20q0 25 -16 38t-42 13h-199q-25 0 -41.5 -13t-16.5 -38q0 -13 4 -20.5t13.5 -10.5t17.5 -4t23 -1v0v0z
M729 609h-432q-18 0 -30.5 -13t-12.5 -30.5t12.5 -30.5t30.5 -13h432q17 0 29.5 13t12.5 30.5t-12.5 30.5t-29.5 13v0v0zM727 273h-430q-18 0 -30.5 -13t-12.5 -30.5t12.5 -30.5t30.5 -13h432q17 0 29.5 13t12.5 31v1q-1 18 -13.5 30t-30.5 12v0v0zM916 781q-35 38 -87 38
h-58q-18 0 -32.5 -11t-14.5 -29q0 -8 3.5 -13t11.5 -7t14 -2.5t18 -0.5h58q20 0 32 -12t12 -32v-671q0 -20 -12 -32t-32 -12h-619q-22 0 -40.5 13t-18.5 31v671q0 20 12 32t32 12h72h9h8t6 0.5t5.5 2t3.5 4t3 7t1 9.5q0 19 -9.5 29.5t-26.5 10.5h-72q-60 0 -82.5 -23.5
t-22.5 -84.5v-663q0 -63 25 -88.5t86 -25.5h622q65 0 88 24t23 90v663q0 27 -3 42.5t-15 27.5v0v0zM916 781z" />
    <glyph glyph-name="remove" unicode="&#xe604;" 
d="M512 845q-94 0 -179 -36.5t-147 -98.5t-98 -147t-36 -179t36 -179t98 -146.5t147 -98t179 -36.5t179 36.5t147 98t98 146.5t36 179t-36 179t-98 147t-147 98.5t-179 36.5zM704 265q16 -16 16 -37.5t-15.5 -36.5t-37 -15t-36.5 15l-119 120l-119 -120q-16 -15 -37 -15
t-36.5 15.5t-15.5 37t15 36.5l120 119l-120 119q-15 15 -15 36.5t15.5 37t37 15.5t36.5 -15l119 -120l119 120q16 15 37 15t36.5 -15.5t15.5 -37t-15 -36.5l-120 -119z" />
    <glyph glyph-name="email" unicode="&#xe605;" 
d="M885 694v0h-743q-31 0 -53 -24t-22 -57v-498q0 -34 22 -58t53 -24h743q31 0 53 24t22 58v498q0 33 -22 57t-53 24zM867 636v0l-296 -287q-39 -38 -57.5 -38t-57.5 38l-296 287h707zM123 133v450l231 -222zM162 92l232 225l38 -36q34 -32 81.5 -32t81.5 32l38 36l232 -225
h-703zM904 133v0l-231 228l231 222v-450z" />
    <glyph glyph-name="template" unicode="&#xe66e;" 
d="M74 336h389v486h-389v-486zM74 -53h389v291h-389v-291zM560 -53h389v486h-389v-486zM560 822v-292h389v292h-389zM560 822z" />
    <glyph glyph-name="jucha2" unicode="&#xe672;" 
d="M734 589q-85 84 -169 96q14 18 14 40q0 27 -18.5 46t-45.5 19t-45.5 -19t-18.5 -46q0 -22 14 -40q-48 -7 -100.5 -34t-83.5 -62h453zM951 416q-21 55 -62 76t-89 14q-2 -1 -8 -2q-1 1 -4.5 7.5t-4.5 8.5t-4 7.5t-4.5 7.5t-4.5 7t-5 7.5t-5 6t-5.5 5.5t-5.5 4.5t-6 3.5
h-471q-34 -19 -60 -51q-19 37 -59 56q-5 2 -19.5 -9t-30.5 -6q-24 8 -37 -8q-5 -7 0 -8q55 -12 75 -44.5t18 -84.5q-10 -30 -23 -86q-1 -5 -2 -14t-1 -37t5 -54.5t19 -63t37 -67t63.5 -62t94.5 -52.5h312q36 12 77 47t55 59q34 50 49 93q62 52 95.5 117t10.5 122zM431 54
q-5 47 7.5 97.5t35 91.5t45 71.5t42.5 49.5q-169 -146 -172 -297q-232 219 266 393q-15 -17 -20 -46t-3.5 -61.5t2.5 -69t-7 -71.5t-27 -66t-62 -55.5t-107 -36.5zM899 395q19 -48 -38 -121q0 75 -38 177h3h4q48 -2 69 -56z" />
    <glyph glyph-name="grin" unicode="&#xe638;" 
d="M512 832q-185 0 -316.5 -131.5t-131.5 -316.5t131.5 -316.5t316.5 -131.5t316.5 131.5t131.5 316.5t-131.5 316.5t-316.5 131.5zM512 -6q-106 0 -195.5 52.5t-142 142t-52.5 195.5t52.5 195.5t142 142t195.5 52.5t195.5 -52.5t142 -142t52.5 -195.5t-52.5 -195.5
t-142 -142t-195.5 -52.5zM693 484q23 0 38.5 16t15.5 38.5t-15.5 38t-38 15.5t-38.5 -15.5t-16 -38.5v0q0 -22 16 -38t38 -16v0zM331 485v0q22 0 38 16t16 38.5t-16 38.5t-38.5 16t-38 -16t-15.5 -39v0q0 -22 15.5 -38t38.5 -16zM740 320q-6 4 -13 4q-11 0 -18 -9
q-34 -45 -86 -71t-111 -26t-111 26t-86 71q-7 9 -18 9q-9 0 -15.5 -6.5t-6.5 -15.5q0 -7 5 -13q57 -76 148 -102q-4 -1 2 -2q30 -11 82 -11q71 0 134 33q84 43 126 127q-22 -32 -23 -32q0 11 -9 18v0zM740 320z" />
    <glyph glyph-name="columns" unicode="&#xe619;" horiz-adv-x="1025" 
d="M869 510h-327q-35 0 -61.5 -23.5t-30.5 -59.5q-1 -2 -1 -6v-71q0 -38 27 -65.5t66 -27.5h327q38 0 65.5 27.5t27.5 65.5v66q0 39 -27.5 66.5t-65.5 27.5v0zM901 412v-57q0 -16 -10.5 -26.5t-26.5 -10.5h-317q-16 0 -26.5 10.5t-10.5 26.5v57q0 15 10.5 26t26.5 11h317
q16 0 26.5 -11t10.5 -26zM852.5 242q-12.5 0 -21.5 -9t-9 -21v-114q0 -15 -10.5 -26t-26.5 -11h-625q-16 0 -26.5 11t-10.5 26v578q0 16 10.5 26.5t26.5 10.5h625q16 0 26.5 -10.5t10.5 -26.5v-120q0 -13 9 -22t21.5 -9t21.5 9t9 22v125q0 38 -27.5 65.5t-65.5 27.5h-635
q-38 0 -65.5 -27.5t-27.5 -65.5v-587q0 -39 27.5 -66.5t65.5 -27.5h635q38 0 65.5 27.5t27.5 66.5v118q0 12 -9 21t-21.5 9zM838.5 419q-14.5 0 -25 -10.5t-10.5 -25t10.5 -25t25 -10.5t25 10.5t10.5 25t-10.5 25t-25 10.5z" />
    <glyph glyph-name="bed" unicode="&#xe61e;" 
d="M939 557q-34 29 -73.5 46.5t-62.5 20.5l-23 3q-63 40 -125 61.5t-110 25t-95 -4.5t-77 -20t-57 -28.5t-35.5 -23t-12.5 -10.5v0q-104 -3 -178 -65l-6 -5v-181q-22 -30 -22 -66v-247h135v68h629v-68h136v247q0 37 -23 67v180zM129 540q32 21 68 32t57 12l20 1
q50 41 104 63.5t101.5 25t93.5 -4t81.5 -21t63 -29.5t42.5 -25t15 -11q75 -10 119 -49v-121q-21 9 -45 9h-47q-18 39 -54.5 62.5t-80.5 23.5t-80 -23.5t-55 -62.5h-41q-18 39 -54.5 62.5t-80.5 23.5t-80 -23.5t-55 -62.5h-47q-23 0 -45 -9v127v0v0zM753 422h-171
q32 43 85.5 43t85.5 -43v0zM442 422h-171q32 43 85 43t86 -43v0zM917 292v-184h-45v67h-720v-67h-44v202h-1q0 28 20 47.5t47 19.5h675q28 0 48 -19.5t20 -47.5v-18z" />
    <glyph glyph-name="eye-open" unicode="&#xe613;" 
d="M896 384q-76 118 -190 176q30 -52 30 -112q0 -92 -65.5 -157.5t-158.5 -65.5t-158.5 65.5t-65.5 157.5q0 60 30 112q-114 -58 -190 -176q66 -102 166.5 -162.5t217.5 -60.5t217.5 60.5t166.5 162.5zM536 575q0 10 -7 17t-17 7q-63 0 -107.5 -44.5t-44.5 -106.5
q0 -10 7 -17t17 -7t17 7t7 17q0 43 30.5 73t73.5 30q10 0 17 7t7 17v0zM960 384q0 -17 -10 -34q-70 -115 -188 -184t-250 -69t-250 69.5t-188 183.5q-10 17 -10 34t10 34q70 114 188 183.5t250 69.5t250 -69.5t188 -183.5q10 -17 10 -34v0z" />
    <glyph glyph-name="rotate-left" unicode="&#xe71f;" 
d="M180.5 391q20.5 0 35 -14t14.5 -34q0 -112 82.5 -191.5t198.5 -79.5t198.5 79.5t82.5 191.5t-82.5 192t-198.5 80v-80l-198 127l198 128v-80q103 0 190.5 -49t138.5 -133.5t51 -184t-51 -184.5t-138.5 -134t-190.5 -49t-190.5 49t-138.5 134t-51 184q0 20 14.5 34t35 14z
" />
    <glyph glyph-name="ele" unicode="&#xe61f;" 
d="M928 701h-832q-13 0 -22.5 -9.5t-9.5 -22.5v-574q0 -14 9.5 -23t22.5 -9h97v-38q0 -13 9.5 -22.5t22.5 -9.5t22.5 9.5t9.5 22.5v38h511v-38q0 -13 9 -22.5t22.5 -9.5t23 9.5t9.5 22.5v38h96q13 0 22.5 9t9.5 23v574q0 13 -9.5 22.5t-22.5 9.5zM896 127h-768v510h768v-510
zM224 191h448q13 0 22.5 9t9.5 23v320q0 13 -9.5 22.5t-22.5 9.5h-448q-13 0 -22.5 -9.5t-9.5 -22.5v-320q0 -14 9.5 -23t22.5 -9zM256 511h384v-256h-384v256zM798 314q13 0 22.5 9.5t9.5 22.5v199q0 13 -9.5 22.5t-22.5 9.5t-22.5 -9.5t-9.5 -22.5v-199q0 -13 9.5 -22.5
t22.5 -9.5zM769 222v0q0 -13 9.5 -22.5t22.5 -9.5t22.5 9.5t9.5 22.5v0v0q0 13 -9.5 22.5t-22.5 9.5t-22.5 -9.5t-9.5 -22.5v0z" />
    <glyph glyph-name="identity" unicode="&#xe68a;" 
d="M849 768h-675q-46 0 -79 -33t-33 -79v-540q0 -47 33 -79.5t79 -32.5h675q47 0 80 32.5t33 79.5v540q0 47 -33 79.5t-80 32.5v0zM917 116q0 -28 -20 -47.5t-48 -19.5h-675q-27 0 -47 19.5t-20 47.5v540q0 28 20 47.5t47 19.5h675q28 0 48 -19.5t20 -47.5v-540zM197 206
h247v45h-247v-45zM197 364h247v44h-247v-44zM197 521h247v45h-247v-45zM741 368q41 34 41 85q0 47 -33 80t-79.5 33t-79.5 -33t-33 -80q0 -51 40 -85q-38 -20 -61.5 -57.5t-23.5 -81.5q0 -10 6.5 -16.5t16 -6.5t16 6.5t6.5 16.5q0 46 33 79t79.5 33t79.5 -33t33 -79
q0 -10 6.5 -16.5t16 -6.5t16 6.5t6.5 16.5q0 44 -23.5 81.5t-62.5 57.5v0zM669 386q-28 0 -47.5 20t-19.5 47.5t19.5 47.5t47.5 20t48 -20t20 -47.5t-20 -47.5t-48 -20v0zM669 386z" />
    <glyph glyph-name="cart-alt" unicode="&#xe603;" 
d="M720 42q0 -21 15.5 -36.5t37 -15.5t36.5 15.5t15 36.5t-15 36.5t-36.5 15.5t-37 -15.5t-15.5 -36.5zM440 94q-21 0 -36.5 -15t-15.5 -36.5t15.5 -37t36.5 -15.5t36.5 15.5t15.5 37t-15.5 36.5t-36.5 15zM319 271l-51 318q-7 38 -21.5 69t-31 50t-37 33.5t-37 21
t-33.5 10.5t-23.5 4.5t-9.5 0.5l-1 -50q6 0 15 -1t30.5 -9.5t39.5 -22.5t35.5 -44t24.5 -71l51 -315q1 -18 7.5 -37t20 -39t38.5 -33t58 -13h486v50h-486q-24 0 -40 10t-23 26t-9 24.5t-3 17.5zM794 241h-313q-51 0 -81.5 30.5t-38.5 63.5q-7 31 -39 234q-8 53 17 83
q24 27 68 27l21 -2l20.5 -2t53.5 -6t74 -9t85 -9.5t84 -8.5t73 -6.5t49 -2.5q53 0 76 -31q23 -33 9 -75l-39 -180q-1 -6 -4 -14t-13 -25.5t-22.5 -31t-34 -24.5t-45.5 -11zM407 627q-20 0 -28 -9q-9 -11 -5 -40l38 -232q1 -4 2.5 -7.5t7 -12.5t12.5 -15t19.5 -11.5
t27.5 -5.5h313q13 0 25.5 7t19.5 15.5t13 20t7.5 15.5t2.5 7l39 182q6 21 -1 30.5t-33 9.5q-87 0 -448 45q-6 1 -12 1z" />
    <glyph glyph-name="kefu" unicode="&#xe639;" 
d="M517 88q7 0 15 1q37 4 66 28t40 60q2 6 -4 8.5t-9 -2.5q-2 -4 -7.5 -9.5t-30 -17t-58.5 -16.5q-17 -2 -33 -2q-53 0 -77 20q-5 5 -9.5 1t-1.5 -10q17 -28 46.5 -44.5t62.5 -16.5v0zM517 88zM926 559h-1.5h-0.5q-34 146 -151 241.5t-268 95.5q-156 0 -275 -100.5
t-148 -252.5q-28 -5 -47 -27.5t-19 -51.5v-160q0 -34 23.5 -57.5t56.5 -23.5q38 0 62 30q27 -70 78.5 -124.5t120.5 -84.5q2 3 4.5 6.5t4.5 3.5t3 -2q-27 21 -65 79t-49 131q-5 36 17.5 68t56.5 38q32 6 101.5 20t106.5 21q65 12 93 73q10 21 14 56q1 7 8 7q4 0 7 -4l2 1
q81 -117 89 -221q8 -89 -6 -145t-71 -108v0q-2 -2 -2 -5t3 -5q0 -1 1 -1h1q1 -1 1.5 -1t1.5 1q1 0 2 0.5t1 1.5q62 34 107.5 89t67.5 123q19 -28 52 -35q-26 -115 -120.5 -186.5t-227.5 -83.5q-7 20 -25 32t-40 12q-30 0 -50.5 -20t-20.5 -48.5t20.5 -49t50.5 -20.5
q23 0 41.5 13.5t25.5 34.5q153 13 261.5 98.5t132.5 222.5q23 9 37 29.5t14 45.5v162q0 33 -24 57t-58 24v0zM852 513q-40 108 -135 175.5t-212 67.5q-118 0 -212.5 -67t-134.5 -174q-2 3 -9 8q23 130 123 216t233 86q131 0 231 -85t124 -214q-6 -7 -8 -13v0zM852 513z
M357 44v0v0v0zM357 44z" />
    <glyph glyph-name="security" unicode="&#xe607;" 
d="M847 711q-11 -1 -24 -1q-56 0 -107.5 9.5t-82.5 21.5t-56.5 26.5t-34 21.5t-11.5 10l-20 20l-20 -20q-2 -3 -10.5 -10t-34 -21.5t-56.5 -26.5t-82.5 -21.5t-108.5 -9.5q-12 0 -23 1l-29 1v-397q0 -36 6 -67.5t28 -74t58.5 -79.5t103.5 -77t158 -73l10 -4l10 4
q91 33 158 73t104 77t58.5 79.5t27.5 74t6 67.5v397zM480 212l-183 163l49 40l97 -72q6 5 15.5 15t39.5 37.5t60 52t71 53t78 46.5l18 -21q-6 -5 -17.5 -15t-44 -43t-61.5 -68t-64 -86.5t-58 -101.5v0zM480 212z" />
    <glyph glyph-name="light" unicode="&#xe623;" 
d="M512 832q-185 0 -316.5 -131.5t-131.5 -316.5t131.5 -316.5t316.5 -131.5t316.5 131.5t131.5 316.5t-131.5 316.5t-316.5 131.5zM512 -6q-106 0 -195.5 52.5t-142 142t-52.5 195.5t52.5 195.5t142 142t195.5 52.5t195.5 -52.5t142 -142t52.5 -195.5t-52.5 -195.5
t-142 -142t-195.5 -52.5zM630 684l-342 -302l248 -41l-122 -257l322 336l-229 31l123 233v0z" />
    <glyph glyph-name="article" unicode="&#xe658;" 
d="M690 825h-492q-27 0 -46.5 -18.5t-19.5 -43.5v-764q0 -26 19.5 -44t46.5 -18h623q27 0 46.5 18t19.5 44v606zM774 621h-86v100zM809 4h-597q-11 0 -11 8v739q0 8 11 8h405v-162q0 -22 16 -37.5t38 -15.5h148v-532q0 -8 -10 -8v0zM808 4zM560 555q0 -14 -10 -24t-24 -10
h-185q-14 0 -24 10t-10 24v0q0 14 10 24t24 10h185q14 0 24 -10t10 -24v0zM721 385q0 -14 -10 -24t-25 -10h-342q-14 0 -24 10t-10 24v0q0 14 10 24t24 10h342q14 0 24.5 -10t10.5 -24v0zM721 215q0 -14 -10 -24t-25 -10h-342q-14 0 -24 10t-10 24v0q0 15 10 25t24 10h342
q14 0 24.5 -10t10.5 -25v0z" />
    <glyph glyph-name="zheng" unicode="&#xe628;" 
d="M962 396q0 -91 -35.5 -173.5t-95 -142.5t-142.5 -95.5t-174 -35.5t-173.5 35.5t-142.5 95.5t-95.5 142.5t-35.5 173.5t35.5 174t95.5 143t142.5 95t173.5 35t174 -35t142.5 -95t95 -143t35.5 -174zM515 794q-108 0 -199.5 -53.5t-144.5 -145t-53 -199.5t53 -199.5
t144.5 -144.5t199.5 -53t199.5 53t144.5 144.5t53 199.5t-53 199.5t-144.5 145t-199.5 53.5zM296 240q19 -1 75 -3v118q0 7 -1 117h45q-2 -45 -2 -117v-117h96v318h-89t-90 -2l-1 2v34q0 1 1 4h2l2 -1q36 -1 40 -1q46 -1 101 -1q101 1 221 1q1 0 17 2h2q1 -3 1 -4v-34v-1
q-88 0 -166 1v-124h156v-36h-156v-159h4q97 1 107 1q5 0 73 2v-39v0q0 -2 -2 -2l-2 1q-49 1 -54 1h-355q-2 0 -24 -2l-1 2v39z" />
    <glyph glyph-name="map-marker" unicode="&#xe610;" 
d="M512 821q-90 0 -165 -43.5t-119 -119t-44 -165.5q0 -38 10.5 -77t23.5 -68.5t41.5 -73t47.5 -68.5t59 -77q10 -13 36 -47.5t45.5 -62.5t35.5 -57q14 -15 29 -15v0q15 0 29 15q22 34 66 92t51 68q4 6 14 19q37 51 55 76t44 66.5t38 70t21.5 66t9.5 73.5q0 90 -44 165.5
t-119 119t-165 43.5zM599 166q-58 -73 -87 -117q-12 19 -43.5 61.5t-43.5 62.5q-38 49 -55.5 72.5t-44 63t-38 65t-21 58t-9.5 61.5q0 104 75.5 179.5t179.5 75.5t179.5 -75.5t75.5 -179.5q0 -69 -41 -142t-127 -185zM403 493q0 -45 32 -77t77 -32t77 32t32 77t-32 77
t-77 32t-77 -32t-32 -77z" />
    <glyph glyph-name="edit-alt" unicode="&#xe69b;" 
d="M87 -31q13 -13 31 -7l331 110l2 1l10 6l428 429l2 2t4 4.5l2 2.5q49 58 50 127q0 70 -58 128t-128 58q-14 0 -28.5 -2.5t-26 -6.5t-23 -9.5t-19.5 -10.5t-15.5 -10.5t-12 -9t-8 -6.5l-3.5 -3l-428 -429q-5 -5 -7 -9l-1 -3l-110 -331q-6 -18 8 -31zM171 82q14 3 24 -6
q4 -4 6 -9t3 -9v-3l-48 -16zM237 280l111 -49l49 -112l-132 -44q-9 27 -26 44q-18 18 -47 26zM449 154l-41 93l355 356l67 -67zM668 728q1 2 13 11.5t35 19.5t45 10q44 -1 85 -41q39 -39 40 -84q0 -29 -18 -60l-83 83q-9 9 -21.5 9t-21.5 -9l-377 -377l-94 41z" />
    <glyph glyph-name="truck-alt" unicode="&#xe654;" horiz-adv-x="1026" 
d="M908 136h-30q-7 -36 -36 -59.5t-65.5 -23.5t-65 23.5t-36.5 59.5h-13q-19 0 -33 11q-15 -11 -33 -11h-145q-8 -36 -36.5 -59.5t-65.5 -23.5t-65.5 23.5t-36.5 59.5h-63q-22 0 -38 16t-16 38v221q3 -1 5 -2q-34 29 -53.5 70.5t-19.5 88.5q0 87 61.5 148.5t148.5 61.5
q57 0 105.5 -28.5t76.5 -76.5h142q22 0 38 -16t16 -38v-63q6 2 12 2h140q18 0 48 -29q17 -16 37 -40v0l10 -12v0l0.5 -0.5l0.5 -0.5q16 -20 30 -40q10 -14 18 -27q17 -29 17 -46v-173q0 -22 -16 -38t-39 -16zM349 96q25 0 43 18t18 43t-18 43t-43 18t-43 -18t-18 -43t18 -43
t43 -18zM272 735q-69 0 -117.5 -49t-48.5 -117.5t48.5 -117.5t117.5 -49t117.5 49t48.5 117.5t-48.5 117.5t-117.5 49zM607 503v116q0 4 -3 7.5t-8 3.5h-124q10 -30 10 -62q0 -87 -61.5 -148.5t-148.5 -61.5q-53 0 -99 25v-193q0 -4 3.5 -7.5t7.5 -3.5h64q7 35 34.5 58
t63.5 24h5v0h1v0v0q36 -1 63.5 -24t35.5 -58h145q5 0 8 3.5t3 7.5v313zM777 96q25 0 43 18t18 43t-18 43t-43 18t-43 -18t-18 -43t18 -43t43 -18zM920 363q-1 8 -14 29l-3 4l6 4l-6 -3l3 1l-3 -1q-10 15 -23 32v1q-7 9 -15 19h-105q-4 0 -7.5 -3.5t-3.5 -8.5v-66
q0 -4 3.5 -7.5t7.5 -3.5h160v3zM920 317h-160q-22 0 -38 16t-16 38v66q0 23 16 39t38 16h67q-1 0 -2 1.5l-1 1.5q-17 16 -24 20h-138q-5 0 -8.5 -3.5t-3.5 -8.5v-313q0 -4 3.5 -7.5t8.5 -3.5h13q7 33 33 56t60 26h0.5h0.5v0v0v0v0v0v0v0v0v0v0h1v0v0v0v0v0h4v0v0v0v0v0v0v0
v0v0v0h1v0v0v0v0v0h4v0h1v0v0v0h2v0h1h1v0v0v0h1v0v0q34 -3 60 -26t33 -56h30q5 0 8.5 3.5t3.5 7.5v0v127zM272 535v0v0h-76q-10 0 -17 7t-7 16.5t7 16.5t17 7h52v97q0 9 7 16t17 7t16.5 -7t6.5 -16v-120q0 -10 -6.5 -17t-16.5 -7z" />
    <glyph glyph-name="computer" unicode="&#xe620;" 
d="M824 823h-635q-53 0 -90 -37.5t-37 -89.5v-508q0 -53 37 -90t90 -37h190v-63h-95v-64h444v63h-95v64h191q52 0 89.5 37t37.5 90v508q0 52 -37.5 89.5t-89.5 37.5zM570 -3h-127v64h127v-64zM887 188q0 -26 -18.5 -45t-44.5 -19h-635q-26 0 -45 19t-19 45v63h762v-63v0z
M125 315v381q0 26 19 44.5t45 18.5h635q26 0 44.5 -18.5t18.5 -44.5v-381h-762zM475 188q0 -13 9 -22.5t22 -9.5t22.5 9.5t9.5 22.5v0q0 13 -9.5 22.5t-22.5 9.5t-22 -9.5t-9 -22.5v0z" />
    <glyph glyph-name="coll" unicode="&#xe63e;" horiz-adv-x="1035" 
d="M741 -49q-22 0 -41 11l-184 97l-183 -97q-19 -10 -41 -10q-27 0 -49 14q-20 14 -30 36.5t-6 45.5l36 211l-155 152q-17 17 -22 40t2 45q8 23 26.5 37.5t42.5 18.5l210 31l92 187q11 22 32 34.5t45.5 12.5t45.5 -12.5t31 -34.5l92 -187l211 -31q24 -4 42 -18.5t26 -36.5
q8 -23 2.5 -46t-22.5 -40l-155 -152l36 -211q4 -23 -5.5 -45.5t-29.5 -36.5q-23 -15 -49 -15v0v0zM516 770q-24 0 -35 -21l-102 -209l-236 -35q-23 -3 -30 -24q-7 -20 9 -36l172 -169l-40 -236q-4 -21 15 -35q10 -6 23 -6q10 0 19 4l205 109l206 -109q8 -4 19 -4q12 0 22 7
q19 13 16 34l-40 236l172 169q16 16 9 36q-8 21 -31 24l-235 35l-103 209q-10 21 -35 21v0zM516 770zM399 341q-9 0 -16 7t-7 16q-1 8 0 20t11 39t28 45q37 37 99 37q9 0 16 -6.5t7 -16.5t-7 -17t-16 -7q-42 0 -65 -23q-26 -27 -26 -70q0 -9 -7 -16t-16 -8h-1v0zM399 341z
" />
    <glyph glyph-name="weizhi" unicode="&#xe65e;" 
d="M514.5 896q-115.5 0 -214 -56.5t-155.5 -154t-57 -212.5q0 -160 107 -280q4 -6 7 -10l277 -288q3 -4 5 -6q6 -6 14 -9q27 -13 48 8q5 5 9 12l271 283q4 3 7 8q108 121 108 282q0 115 -57 212.5t-155.5 154t-214 56.5zM514.5 301q-79.5 0 -136 55.5t-56.5 134.5t56.5 135
t136 56t135.5 -56t56 -135t-56 -134.5t-135.5 -55.5z" />
    <glyph glyph-name="icon02" unicode="&#xe659;" 
d="M855 753h-686q-41 0 -70 -29t-29 -70v-540q0 -41 29 -70t70 -29h686q41 0 70 29t29 70v540q0 41 -29 70t-70 29zM898 114q0 -18 -12.5 -30.5t-30.5 -12.5h-686q-18 0 -30.5 12.5t-12.5 30.5v540q0 18 12.5 30.5t30.5 12.5h686q18 0 30.5 -12.5t12.5 -30.5v-540v0z
M202 611h620v-58h-620v58zM540 492h282v-58h-282v58zM540 350h282v-58h-282v58zM540 210h231v-58h-231v58zM202 491h268v-339h-268v339z" />
    <glyph glyph-name="liangyoufushi1" unicode="&#xe8cd;" 
d="M600 879q-4 2 -11 5t-29.5 7.5t-47.5 4.5t-47 -4t-31 -9l-10 -4v-67h176v67v0zM841 -38v606q0 14 -5 24.5t-10 14.5l-5 3l-220 176h-178l-220 -176q-20 -10 -20 -42v-606q2 0 0 -9t3.5 -22.5t13 -26.5t27 -22.5t46.5 -9.5h151h176h151q76 0 88 67q2 9 2 23zM751 180
q0 -7 -5.5 -12.5t-13.5 -5.5h-135q-7 0 -12.5 5.5t-5.5 12.5v297q0 8 5.5 13t12.5 5h135q8 0 13.5 -5t5.5 -13v-297v0z" />
    <glyph glyph-name="see" unicode="&#xe608;" 
d="M589 566q0 12 -8.5 20.5t-20.5 8.5h-340q-12 0 -20.5 -8.5t-8.5 -20.5t8.5 -20t20.5 -8h340q12 0 20.5 8t8.5 20zM191 431q0 -12 8.5 -20.5t20.5 -8.5h218q10 31 30 57h-248q-12 0 -20.5 -8t-8.5 -20zM669 78q0 -8 -5.5 -13.5t-13.5 -5.5h-521q-8 0 -13.5 5.5t-5.5 13.5
v591q0 8 5.5 13.5t13.5 5.5h521q8 0 13.5 -5.5t5.5 -13.5v-146q23 -7 43 -19v165q0 26 -18 44t-44 18h-521q-25 0 -43.5 -18t-18.5 -44v-591q0 -26 18.5 -44t43.5 -18h521q26 0 44 18t18 44v106q-20 -12 -43 -19v-87zM952 139l-180 119q24 40 24 88q0 73 -52 125t-125.5 52
t-125.5 -52t-52 -125.5t52 -125.5t125 -52q68 0 119 46l184 -122q6 -5 22 18.5t9 28.5zM618.5 211q-55.5 0 -95.5 39.5t-40 95t40 95.5t95.5 40t95.5 -40t40 -95.5t-40 -95t-95.5 -39.5z" />
    <glyph glyph-name="time" unicode="&#xe678;" 
d="M367 830q9 2 17 -2.5t10.5 -13.5t-2 -17.5t-13.5 -10.5q-63 -18 -120 -52q-57 -33 -103 -81q-7 -7 -16.5 -7t-16 6.5t-7 16t6.5 15.5q50 52 112 89t132 57v0v0zM319 -14q-8 5 -11 14t1.5 17t14 11t17.5 -2q39 -21 82.5 -32t88.5 -11q73 0 139 28t116 77.5t77.5 115.5
t27.5 139t-28 138.5t-77.5 115.5t-115.5 77.5t-139 27.5t-139 -27.5t-115.5 -77.5t-77.5 -115.5t-28 -138.5q0 -65 22 -124q22 -60 64 -109q6 -7 5 -16.5t-8 -15.5t-16.5 -5.5t-15.5 7.5q-47 56 -72 123.5t-25 139.5q0 82 31.5 156t87.5 130.5t130 87.5t157 31t157 -31
t130 -87.5t87.5 -130.5t31.5 -156.5t-31.5 -156.5t-87.5 -130t-130 -87.5t-157 -31.5q-50 0 -99 13q-49 12 -94 36v0v0v0zM477 606q0 9 6.5 16t16 7t16.5 -7t7 -16v-240h207q10 0 16.5 -7t6.5 -16.5t-6.5 -16t-16.5 -6.5h-230q-10 0 -16.5 6.5t-6.5 16.5v263v0zM901 684
q7 -6 6.5 -15.5t-7 -16t-16 -6.5t-16.5 7q-46 47 -102.5 81t-120.5 52q-9 2 -13.5 10.5t-2 17.5t10.5 13.5t17 2.5q70 -20 132 -57t112 -89v0v0zM901 684z" />
    <glyph glyph-name="password-alt" unicode="&#xe66b;" 
d="M522 340q-31 0 -53 -21.5t-22 -52.5q0 -22 12 -40t31 -27v-83q0 -13 9.5 -22.5t22.5 -9.5t22.5 9.5t9.5 22.5v83q19 9 31 27t12 40q0 31 -22 52.5t-53 21.5zM831 490h-640q-26 0 -45 -19t-19 -45v-427q0 -26 19 -45t45 -19h640q27 0 45.5 19t18.5 45v427q0 26 -18.5 45
t-45.5 19zM831 42q0 -27 -8 -35t-34 -8h-555q-27 0 -35 8t-8 35v341q0 27 8 35t35 8h555q26 0 34 -8t8 -35v-341zM209 522q13 0 22.5 9.5t10.5 22.5v0q22 92 97 152.5t172 60.5q76 0 139.5 -37.5t100.5 -100.5q8 -19 29 -19q14 0 23 9t9 23q0 10 -5 18q-46 78 -124.5 124.5
t-171.5 46.5q-123 0 -216.5 -75.5t-117.5 -193.5v-2l-0.5 -1l-0.5 -1v0v-3q0 -14 9.5 -23.5t23.5 -9.5z" />
    <glyph glyph-name="book" unicode="&#xe689;" 
d="M779 658q10 21 9 40.5t-14 26.5l-212 107q-12 6 -28.5 -4.5t-26.5 -32.5l-244 -474l272 -140zM505 123l-272 139l-1 -2l47 -249zM841 -8h-490q-6 0 -10 -4.5t-4 -10.5v-29q0 -6 4 -10t10 -4h490q6 0 10.5 4t4.5 10v29q0 6 -4.5 10.5t-10.5 4.5z" />
    <glyph glyph-name="picture" unicode="&#xe6c1;" 
d="M340.5 453q28.5 0 48.5 20t20 48t-20 48.5t-48.5 20.5t-48.5 -20.5t-20 -48.5t20 -48t48.5 -20zM649 495l-203 -286l-105 146l-172 -245h686zM923 778h-822q-15 0 -25 -10t-10 -24v-720q0 -14 10 -24t25 -10h822q15 0 25 10t10 24v720q0 14 -10 24t-25 10zM889 58h-754
v652h754v-652z" />
    <glyph glyph-name="crown" unicode="&#xe721;" horiz-adv-x="1366" 
d="M1107 401l-74 -408q-2 -13 -13 -22t-24 -9h-687q-13 0 -23.5 9t-13.5 22l-70 408q-9 -1 -18 -1q-39 0 -66.5 27.5t-27.5 66t27.5 66t66.5 27.5t66.5 -27.5t27.5 -66.5q0 -25 -13 -47l175 -137q11 -8 21.5 -5t15.5 15l129 312q-21 12 -34 33.5t-13 47.5q0 39 27.5 66.5
t66 27.5t66 -27.5t27.5 -66.5q0 -26 -12.5 -47.5t-34.5 -33.5l129 -312q5 -12 16 -15.5t22 4.5l185 123q-23 27 -23 62q0 39 27.5 66.5t66 27.5t66 -27.5t27.5 -66t-27.5 -66t-66.5 -27.5q-7 0 -14 1v0z" />
    <glyph glyph-name="settled" unicode="&#xe614;" 
d="M424 33h-158q-23 0 -38.5 16t-15.5 38v159q0 18 -13 30.5t-31 12.5q-17 0 -30 -12.5t-13 -30.5v-159q0 -58 41.5 -99t99.5 -41h159q18 0 30.5 12.5t12.5 30.5t-13 30q-13 13 -31 13zM901 157h-92v92q0 15 -10.5 26t-26 11t-26 -11t-10.5 -26v-92h-93q-16 0 -26.5 -11
t-10.5 -26t10.5 -25.5t26.5 -10.5h92v-93q0 -15 10.5 -25.5t26 -10.5t26 10.5t10.5 25.5v93h92q15 0 26 10.5t11 26t-11 25.5q-9 11 -25 11zM953 463q0 7 -1 13l-80 288q-6 17 -16 27.5t-24 14.5t-23 5t-23 1h-544q-14 0 -22.5 -1t-22 -5t-23.5 -15t-18 -28v-1l-79 -276
q-2 -9 -1 -18v-6q0 -59 41.5 -100.5t100.5 -41.5q57 0 98 40q41 -40 99 -40t99 40q41 -40 99 -40q57 0 99 40q41 -40 99 -40q59 1 100.5 42.5t41.5 100.5v0v0zM868 415q-21 -29 -67 -29q-37 0 -84 47l-7 8l-8 -8q-18 -18 -43.5 -32.5t-44.5 -14.5q-21 0 -48.5 15t-43.5 32
l-8 8l-7 -8q-18 -18 -43.5 -32t-44.5 -14q-21 0 -49.5 15.5t-43.5 31.5l-8 8l-8 -8q-46 -48 -80 -48q-49 0 -70 30q-21 28 -7 73q0 1 1 2q1 2 1 3q2 6 4 11l67 213q8 17 21 21.5t34 4.5h467q29 0 39.5 -6t15.5 -19l68 -222q0 -1 0.5 -3.5t1.5 -4.5l1 -1q13 -46 -6 -73z" />
    <glyph glyph-name="money" unicode="&#xe65d;" 
d="M512 832q-185 0 -316.5 -131.5t-131.5 -316.5t131.5 -316.5t316.5 -131.5t316.5 131.5t131.5 316.5t-131.5 316.5t-316.5 131.5zM512 -6q-106 0 -195.5 52.5t-142 142t-52.5 195.5t52.5 195.5t142 142t195.5 52.5t195.5 -52.5t142 -142t52.5 -195.5t-52.5 -195.5
t-142 -142t-195.5 -52.5zM616 387q-33 25 -74 32q9 -2 7 0q-3 3 -19 7v120q25 0 38.5 -15.5t14.5 -44.5h63q0 28 -9.5 49t-26.5 35q-24 20 -55 24l-18 3h-7v37h-33v-37q-20 0 -43 -8q-33 -10 -56 -36q0 1 -1.5 -1t-3.5 -5.5t-4 -8t-4.5 -10.5t-4.5 -12q-3 -3 -3 -30
q0 -32 11 -53q16 -30 46 -45q3 -5 19.5 -11.5t35.5 -9.5h-9q3 -2 17 -6v-137q-33 1 -49.5 22.5t-16.5 58.5h-63q0 -31 9.5 -55.5t27.5 -41.5q26 -25 62 -31l14 -3q8 -1 16 -1v-39h33v39q22 1 46 9q34 12 56 39q3 0 13.5 24t10.5 55t-11 52q-17 31 -47 46zM497 432
q-5 2 -10.5 4.5t-7.5 3.5q-18 6 -31 21q-6 10 -8 17q-1 -1 -1 12q0 30 16.5 43t41.5 13v-114v0zM574 242q-20 -16 -44 -18v132q5 -1 11 -4t9 -4q21 -8 35 -24h-1q5 -9 7 -16q2 -1 2 -17q0 -34 -19 -49v0z" />
    <glyph glyph-name="tangdou" unicode="&#xe6de;" 
d="M252 218q-6 0 -14.5 -2t-31 -11t-39 -22t-29 -38.5t-9.5 -58.5q17 -100 101 -74q-2 -21 17.5 -48t64.5 -35q101 -20 120 25q4 -5 15 -12.5t30.5 -15t40 -8.5t44 12.5t42.5 43.5q9 16 5.5 52.5t-23.5 63.5q-18 -7 -49 -8t-71 6t-78.5 21.5t-75.5 43t-60 65.5zM461 647
q-4 4 -9.5 11t-16.5 28t-15 41.5t3 48.5t30 51q14 10 35.5 16.5t48.5 1.5t42 -27q19 16 52.5 18t64.5 -8.5t53 -36.5t21 -60q13 10 38.5 8t49 -16.5t34.5 -44t-4 -74.5q-7 -22 -32 -45.5t-57 -31.5q-18 31 -69 66.5t-123 56.5t-146 -3zM793.5 413.5q-16.5 100.5 -106.5 159
t-201.5 40.5t-178 -102t-50 -185t106.5 -159.5t201 -40t178 102.5t50.5 184.5zM419.5 462q-24.5 -20 -50.5 -24t-37.5 10.5t-2.5 39t33.5 44.5t50.5 24t37.5 -10.5t2.5 -39t-33.5 -44.5z" />
    <glyph glyph-name="close" unicode="&#xe64c;" 
d="M512 834q-91 0 -174.5 -36t-143.5 -96t-96 -143.5t-36 -174.5t36 -174.5t96 -143.5t143.5 -96t174.5 -36t174.5 36t143.5 96t96 143.5t36 174.5t-36 174.5t-96 143.5t-143.5 96t-174.5 36zM512 -16q-109 0 -201 53.5t-145.5 145.5t-53.5 201t53.5 201t145.5 145.5
t201 53.5t201 -53.5t145.5 -145.5t53.5 -201t-53.5 -201t-145.5 -145.5t-201 -53.5zM719.5 591.5q-12.5 12.5 -30.5 12.5t-30 -13l-147 -147l-147 147q-12 13 -30 13t-30.5 -12.5t-12.5 -30.5t13 -30l147 -147l-147 -147q-13 -12 -13 -30t12.5 -30.5t30.5 -12.5t30 13
l147 147l147 -147q12 -13 30 -13t30.5 12.5t12.5 30.5t-13 30l-147 147l147 147q13 12 13 30t-12.5 30.5z" />
    <glyph glyph-name="drug" unicode="&#xe629;" horiz-adv-x="1026" 
d="M892.5 763.5q-70.5 70.5 -170 70.5t-169.5 -70l-420 -420q-70 -71 -70 -170t70.5 -169.5t169.5 -70.5t170 70l420 420q70 71 70 170t-70.5 169.5zM415 62q-47 -46 -112.5 -46t-111.5 46.5t-46 112t46 111.5l171 171q23 -15 47.5 -33.5t58.5 -47.5t65.5 -66.5t53.5 -75.5
l-172 -172v0zM835 482l-196 -196q-75 122 -225 223l197 197q46 46 111.5 46t112.5 -46v0q46 -46 46 -112t-46 -112zM630.5 602.5q10.5 -10.5 10.5 -25.5t-11 -25l-49 -49q-10 -11 -25 -11t-25.5 10.5t-10.5 25.5t11 25l49 49q10 11 25 11t25.5 -10.5zM713 685q12 -12 12 -29
t-12 -29t-29 -12t-29 12t-12 29t12 29t29 12t29 -12z" />
    <glyph glyph-name="examine" unicode="&#xe6dc;" 
d="M917 5l-96 96q35 52 35 115q0 86 -61 147t-147.5 61t-147 -61t-60.5 -147.5t60.5 -147.5t147.5 -61q62 0 114 35l97 -96q9 -9 21.5 -9t21.5 9l15 15q9 9 9 22t-9 22v0zM760 162q-19 -40 -59 -59q-26 -12 -53 -12q-52 0 -88.5 36.5t-36.5 88t36.5 88.5t88 37t88.5 -37
t37 -88q0 -28 -13 -54v0zM376 177h-102q-13 0 -22 9t-9 22t9 22.5t22 9.5h100q4 44 22 85h-122q-13 0 -22 9t-9 22.5t9 22.5t22 9h161q48 59 119 85h-280q-13 0 -22 9t-9 22.5t9 22.5t22 9h489q13 0 22 -9t9 -22.5t-9 -22.5t-22 -9h-24q64 -23 110.5 -74.5t62.5 -118.5v456
q0 40 -28.5 68t-67.5 28h-595q-39 0 -67.5 -28t-28.5 -68v-686q0 -40 28.5 -68t67.5 -28h349q-77 22 -129.5 82.5t-64.5 140.5v0v0zM274 684h489q13 0 22 -9t9 -22.5t-9 -22.5t-22 -9h-489q-13 0 -22 9t-9 22.5t9 22.5t22 9v0z" />
    <glyph glyph-name="remaichanpin" unicode="&#xe6ef;" 
d="M480 368q-1 18 -18 19q-18 -2 -19 -19h37zM455 368q0 10 7 10t7 -10h-14zM438 380q-1 6 -6 7q-6 -1 -6 -7v-6h-11v6q0 6 -6 7q-5 -1 -5 -7v-24q0 -6 5 -6q6 0 6 6v8h11v-8zM506 377h6q5 0 5 4.5t-5 4.5h-24q-5 0 -5 -4.5t4 -4.5h7h12zM480 368q-1 18 -18 19
q-18 -2 -19 -19h37zM438 380q-1 6 -6 7q-6 -1 -6 -7v-6h-11v6q0 6 -6 7q-5 -1 -5 -7v-24q0 -6 5 -6q6 0 6 6v8h11v-8zM480 368q-1 18 -18 19q-18 -2 -19 -19h37zM438 380q-1 6 -6 7q-6 -1 -6 -7v-6h-11v6q0 6 -6 7q-5 -1 -5 -7v-24q0 -6 5 -6q6 0 6 6v8h11v-8zM506 377h6
q5 0 5 4.5t-5 4.5h-24q-5 0 -5 -5zM486 323q-35 -1 -36 -52q1 -49 36 -50q37 1 38 50q-1 51 -38 52zM704 896q-18 -47 -39 -84t-40 -60t-39.5 -39t-37 -22.5t-34 -9.5t-28 -2.5t-21.5 2t-13 1.5q13 29 87 96q4 4 3 4l-10.5 0.5t-28.5 -0.5t-42.5 -4.5t-55.5 -14t-64 -26
t-72 -43.5t-76 -64q-42 -41 -71.5 -89.5t-43 -96t-19 -85.5t-5.5 -75q0 -108 53 -200t145 -145t200 -53q163 0 272 105t132 276q12 84 9 158.5t-13 136.5t-27.5 114.5t-35.5 91t-37 67t-31 43t-17 18.5zM360 207q-1 -29 -30 -30q-29 1 -30 30v43h-58v-43q-1 -29 -30 -30
q-28 1 -29 30v129q1 31 29 32q29 -1 30 -32v-35h58v35q1 31 30 32q29 -1 30 -32v-129zM486 176q-93 4 -96 95q4 91 96 98q93 -6 97 -98q-3 -92 -97 -95zM752 317h-35v-110q-1 -29 -31 -30q-28 1 -29 30v110h-36q-25 0 -25 24q0 23 27 23h127q27 0 27 -23q0 -24 -25 -24z" />
    <glyph glyph-name="shangpin" unicode="&#xe9ab;" 
d="M303 546q20 17 20 43q0 23 -16.5 39t-39.5 16t-39 -16t-16 -39q0 -33 28 -49q18 -97 93 -161q77 -66 179 -66t179 66q76 64 93 161q29 16 29 49q0 23 -16.5 39t-39.5 16t-39.5 -16t-16.5 -39q0 -26 21 -43q-15 -73 -72 -121q-60 -50 -138 -50t-137 50q-57 48 -72 121z
M921.5 801.5q-30.5 30.5 -72.5 30.5h-204v-2q-20 -8 -20 -29.5t20 -28.5v-2h204q17 0 29 -12.5t12 -30.5v-686q0 -18 -12 -30t-29 -12h-674q-17 0 -29 12t-12 30v686q0 18 12 30.5t29 12.5h183l-2 2q18 9 18 29t-18 29l1 2h-182q-42 0 -72.5 -30.5t-30.5 -74.5v-686
q0 -43 30.5 -74t72.5 -31h674q42 0 72.5 31t30.5 74v686q0 44 -30.5 74.5z" />
    <glyph glyph-name="browse" unicode="&#xe615;" 
d="M760 633q-11 7 -24 4.5t-20 -13.5t-4 -23.5t13 -19.5q77 -51 124.5 -119.5t47.5 -102.5q0 -23 -17.5 -58.5t-52 -75.5t-79.5 -74.5t-107.5 -57.5t-128.5 -23q-70 0 -134 24t-108 60t-77.5 76.5t-49.5 74.5t-16 53q0 36 47 104.5t123 117.5q11 8 14 20.5t-4.5 23.5
t-20 13.5t-23.5 -4.5q-85 -56 -142 -138t-57 -137q0 -31 20 -75t60.5 -92t93 -89t125 -67.5t149.5 -26.5t150 26t125 67t92 89t60 92t21 76q0 55 -57 136.5t-143 138.5zM390 760q-13 0 -22 -9.5t-9 -22.5v-30q0 -13 9 -22t22 -9t22 9t9 22v30q0 13 -9 22.5t-22 9.5zM634 760
q-13 0 -22.5 -9.5t-9.5 -22.5v-30q0 -13 9.5 -22t22.5 -9t22 9t9 22v30q0 13 -9 22.5t-22 9.5zM511.5 558q29.5 0 52.5 15.5t34 33.5q7 10 4.5 22.5t-13.5 19.5t-23.5 4.5t-19.5 -12.5q-13 -20 -34 -20t-34 19q-7 11 -19.5 14t-23.5 -4t-13.5 -19.5t3.5 -23.5
q11 -18 34 -33.5t52.5 -15.5zM512 162.5q75 -0.5 128 53t53 128.5t-53 128t-128 53t-128 -53t-53 -128t53 -128t128 -53.5zM512 462q49 0 84 -34.5t35 -83.5t-35 -84t-84 -35t-84 35t-35 84t35 83.5t84 34.5z" />
    <glyph glyph-name="care" unicode="&#xe686;" 
d="M289 634v25h-16q-6 -1 -11 4q-31 28 -32 29q-15 11 -14 31q1 11 1 51q0 10 7 17q3 4 16 16t19 19q7 6 15 6h473q8 0 13 -6q26 -27 34 -35q5 -5 5 -13v-68q0 -10 -7 -16q-9 -8 -31 -29q-7 -7 -16 -6h-19v-25h12h44q8 0 13 -6q13 -13 60 -62q5 -6 5 -14v-535q0 -9 -7 -16
q-40 -38 -58 -56q-9 -9 -21 -9h-531q-7 0 -12 5l-19.5 19.5l-23 23t-20.5 19.5q-2 2 -4 10v7v529q0 12 8 20q22 24 53 59q6 6 15 6h44h5zM512 -10h258q5 0 7 3q6 5 17.5 15t16.5 15q3 3 3 8v282v229q0 5 -2 7q-19 17 -41 35q-3 3 -8 3h-505q-5 0 -8 -3q-19 -17 -38 -35
q-3 -2 -3 -6v-513q0 -4 3 -7q6 -5 16.5 -15t15.5 -14q4 -4 10 -4h258zM510 705h202q14 0 22 11q11 15 9 28q0 3 0.5 11.5t-0.5 9.5l-4 6t-5.5 6t-4.5 5q-4 4 -9 4q-274 -1 -413 0q-12 0 -23 -9q-14 -11 -12 -26q1 -3 0 -6q-2 -18 11 -29q3 -2 7 -7q3 -4 8 -4h212zM344 634
h336v24h-336v-24zM628 474q21 21 45 27q27 6 51.5 -5t38.5 -34t16 -54q3 -51 -42 -84q-8 -6 -22.5 -15t-20.5 -14q-26 -18 -42 -42q-8 -12 -22.5 -12t-23.5 12q-20 29 -58 51q-29 17 -44 33q-27 28 -26 66q1 39 20 65q23 32 60.5 35.5t66.5 -24.5zM629 302q23 25 56 46
q14 8 30 21q12 9 15 22q5 25 -8 46q-7 12 -20.5 15.5t-25.5 -2.5q-13 -6 -24 -25q-6 -9 -18 -22q-5 -6 -11 0l-18 21q-1 2 -6 9.5t-8 10.5q-13 13 -29 11t-26 -17q-12 -18 -9 -43q1 -15 12 -25q11 -8 28 -20q5 -4 18 -12.5t20 -13.5q2 -1 24 -22z" />
    <glyph glyph-name="outdoors" unicode="&#xe6b8;" 
d="M971 154q-502 -161 -522 -167q-10 -2 -20 -0.5t-17 4l-7 2.5l-333 178q8 97 26.5 183t55.5 169.5t88.5 144.5t129 101.5t172.5 47.5q67 5 127 -26t102 -81t78.5 -118.5t59 -131t39.5 -125.5t23.5 -95t8.5 -47q4 -32 -11 -39zM563 216q9 -66 27 -130q103 33 274 88
q-2 16 -5 27q-28 146 -83 249.5t-114 115.5q-42 8 -70 -35t-36 -124t7 -191zM139 202l247 -134q-13 94 -14.5 182.5t7.5 157.5t20.5 125.5t28.5 101.5t27.5 68.5t20.5 41.5q-67 -16 -121.5 -54.5t-91.5 -90.5t-63.5 -119t-40.5 -135.5t-20 -143.5zM914.5 221q-1.5 13 -7 40
t-20 81t-33.5 107.5t-50 112t-67.5 102t-87.5 69.5t-108 22q-2 0 -15 -2q-40 -66 -64.5 -156.5t-31.5 -169t-5.5 -165.5t6 -133t10.5 -85q11 -2 19 0q6 2 80 25q-20 72 -29 143q-15 132 -1 223t52 137t89 35q72 -16 141 -131.5t103 -281.5q1 -2 2 -9l8 2q1 1 3.5 2.5t5 10
t1 21.5zM228 430q1 5 2 13.5t6 30.5t13 37.5t22.5 26.5t33.5 7q19 -5 31 -23.5t15.5 -42t4 -46.5t-1.5 -39l-2 -16zM298 504q-15 4 -24 -10.5t-11 -30.5l-2 -16l59 -25q1 0 2 19t-4.5 39.5t-19.5 23.5z" />
    <glyph glyph-name="cha" unicode="&#xe66c;" 
d="M607 383l329 329q20 19 20 47.5t-20 48t-48 19.5t-48 -20l-328 -329l-329 330q-20 19 -47.5 19t-47 -19.5t-19.5 -47t20 -46.5l329 -330l-329 -328q-19 -20 -19 -48t19.5 -48t47.5 -20t48 20l328 328l326 -325q19 -20 47 -20t47.5 19.5t19.5 47t-20 47.5z" />
    <glyph glyph-name="cloud-upload" unicode="&#xe676;" 
d="M803 73v0h-207q-13 0 -22.5 8.5t-9.5 20.5v130h79q19 0 24 12t-5 26q-83 117 -131 186q-15 19 -31 18.5t-28 -18.5q-70 -99 -130 -184q-12 -16 -9.5 -28t22.5 -12h84v-132q0 -12 -10 -19.5t-25 -7.5h-171v0q-98 8 -165 79.5t-67 169.5q0 103 73.5 176t177.5 73
q30 0 59 -7q32 60 91.5 96t130.5 36q93 0 163.5 -61t84.5 -151q11 1 17 1q86 0 147 -60.5t61 -145.5q0 -84 -59 -144t-144 -62z" />
    <glyph glyph-name="returntop" unicode="&#xe65a;" 
d="M62 384q0 -91 35.5 -174.5t96 -144t144 -96t174.5 -35.5t174.5 35.5t144 96t96 144t35.5 174.5t-35.5 174.5t-96 144t-144 96t-174.5 35.5t-174.5 -35.5t-144 -96t-96 -144t-35.5 -174.5zM906 384q0 -107 -53 -197.5t-143.5 -143.5t-197.5 -53t-197.5 53t-143.5 143.5
t-53 197.5t53 197.5t143.5 143.5t197.5 53t197.5 -53t143.5 -143.5t53 -197.5zM323 460q-8 -8 -8 -19.5t8.5 -20t20 -8.5t19.5 8l121 121v-382v0q0 -12 8 -20t20 -8v0v0q12 0 20 8t8 20v0v382l121 -121q8 -8 19.5 -8t20 8.5t8.5 19.5v0v0q0 12 -8 20l-169 169q-8 8 -20 8
t-20 -8z" />
    <glyph glyph-name="books" unicode="&#xe621;" 
d="M850 657h-615q-37 0 -63 26t-26 63t26 63t63 26h529q11 0 19 -8t8 -19.5t-8 -19.5t-19 -8h-529q-14 0 -23.5 -10t-9.5 -24t9.5 -23.5t23.5 -9.5h615q12 0 20 -8.5t8 -20t-8 -19.5t-20 -8v0zM850 -67h-615q-37 0 -63 26t-26 63q0 11 8 19.5t19.5 8.5t20 -8.5t8.5 -19.5
q0 -14 9.5 -24t23.5 -10h615q12 0 20 -8t8 -19.5t-8 -19.5t-20 -8v0zM174 -6q-12 0 -20 8t-8 20v724q0 12 8 20t19.5 8t20 -8t8.5 -20v-724q0 -12 -8.5 -20t-19.5 -8v0zM850 -67q-11 0 -19.5 8t-8.5 20v724q0 11 8.5 19.5t20 8.5t19.5 -8.5t8 -19.5v-724q0 -12 -8 -20
t-20 -8v0zM764 657q-12 0 -20 8t-8 20v122q0 12 8 20t19.5 8t19.5 -8t8 -20v-122q0 -12 -8 -20t-19 -8v0zM672 477h-333q-11 0 -19 8.5t-8 19.5t8 19.5t19 8.5h333q12 0 20 -8.5t8 -19.5t-8 -19.5t-20 -8.5v0zM512 352h-173q-11 0 -19 8t-8 19.5t8 19.5t19 8h173
q11 0 19.5 -8t8.5 -19.5t-8.5 -19.5t-19.5 -8v0zM512 352z" />
    <glyph glyph-name="cart" unicode="&#xe6cc;" 
d="M958 668q0 15 -11 25.5t-26 10.5h-625q-7 0 -13 -2l-34 103q-4 13 -16 20t-25 5h-2h-104q-15 0 -26 -11t-11 -26t11 -26t26 -11h85l149 -457l-109 -133q-10 -11 -8 -26.5t14 -24.5q15 -13 34 -7h632q15 0 26 11t11 26t-11 26t-26 11h-564l61 73h406q15 0 26 10.5t11 25.5
v1l117 349q2 6 2 12q0 3 -1 7q1 4 1 8zM773 329h-369l-98 302h568zM519 403q15 0 26 10.5t11 25.5v96q0 15 -11 26t-26 11t-26 -11t-11 -26v-96q0 -15 11 -25.5t26 -10.5zM682.5 403q15.5 0 26.5 10.5t11 25.5v96q0 15 -11 26t-26.5 11t-26 -11t-10.5 -26v-96
q0 -15 10.5 -25.5t26 -10.5zM347.5 57q-24.5 0 -42 -17.5t-17.5 -42t17.5 -41.5t42 -17t42 17t17.5 41.5t-17.5 42t-42 17.5zM809.5 57q-24.5 0 -42 -17.5t-17.5 -42t17.5 -41.5t42 -17t42 17t17.5 41.5t-17.5 42t-42 17.5zM809 57z" />
    <glyph glyph-name="cloud-upload-alt" unicode="&#xe67b;" 
d="M661 369q0 -6 -4 -10.5t-11 -4.5h-104v-164q0 -6 -4.5 -10.5t-10.5 -4.5h-90q-6 0 -10.5 4.5t-4.5 10.5v164h-104q-6 0 -10.5 4.5t-4.5 10.5t5 11l163 164q5 4 11.5 4t10.5 -4l164 -164q4 -4 4 -11zM960 235q0 62 -39 111t-100 63q20 29 20 65q0 49 -35.5 84t-84.5 35
q-44 0 -77 -29q-28 67 -88.5 108t-133.5 41q-99 0 -169 -70t-70 -169q0 -6 1 -20q-55 -26 -87.5 -77.5t-32.5 -111.5q0 -87 61.5 -148.5t147.5 -61.5h508q74 0 126.5 52.5t52.5 127.5z" />
    <glyph glyph-name="truck" unicode="&#xe6fe;" horiz-adv-x="1247" 
d="M461 607h-124q-15 0 -35.5 -8.5t-31.5 -19.5l-108 -114q-11 -12 -19.5 -32.5t-8.5 -36.5v-141l-25 25h143q11 0 18 -7.5t7 -18t-7 -18t-18 -7.5h-143q-11 0 -18.5 7.5t-7.5 18.5v141q0 25 12 55t30 49l109 113q18 19 47.5 32t55.5 13h124v75q0 42 29.5 71.5t71.5 29.5
h504q41 0 71 -29.5t30 -71.5v-402q0 -42 -29.5 -72t-71.5 -30h-504q-42 0 -71.5 30t-29.5 72v276zM524 724v-385q0 -20 14.5 -34.5t34.5 -14.5h482q20 0 34.5 14.5t14.5 34.5v385q0 21 -14.5 35t-34.5 14h-482q-20 0 -34.5 -14t-14.5 -35zM360.5 -48q52.5 0 89 37t36.5 89
t-36.5 89t-89 37t-89.5 -37t-37 -89t37 -89t89.5 -37zM360.5 3q-31.5 0 -53.5 22t-22 53t22 53.5t53.5 22.5t53.5 -22.5t22 -53.5t-22 -53t-53.5 -22zM915 -48q52 0 89 37t37 89t-37 89t-89 37t-89 -37t-37 -89t37 -89t89 -37zM914.5 3q-31.5 0 -53.5 22t-22 53t22 53.5
t53.5 22.5t53.5 -22.5t22 -53.5t-22 -53t-53.5 -22zM260 406h100q11 0 18.5 7t7.5 18v101q0 10 -7.5 17.5t-18 7.5t-18 -7.5t-7.5 -17.5v-101l25 25h-100q-11 0 -18.5 -7.5t-7.5 -18t7.5 -17.5t18.5 -7z" />
    <glyph glyph-name="complete" unicode="&#xe602;" 
d="M387 685q13 0 22 9.5t9 21.5v11h187v-11q0 -12 9 -21.5t22 -9.5t22 9.5t9 21.5v83q0 13 -9 22.5t-22 9.5t-22 -9.5t-9 -22.5v-10h-187v10q0 13 -9 22.5t-22 9.5t-22 -9.5t-9 -22.5v-83q0 -12 9 -21.5t22 -9.5zM400.5 581q-12.5 0 -22 -9t-9.5 -22v-30q0 -13 9.5 -22
t22 -9t22 9t9.5 22v30q0 13 -9.5 22t-22 9zM622.5 581q-12.5 0 -22 -9t-9.5 -22v-30q0 -13 9.5 -22t22 -9t22 9t9.5 22v30q0 13 -9.5 22t-22 9zM511 350q29 0 52 15t34 33q7 10 4.5 22.5t-13.5 19.5t-23.5 4.5t-19.5 -12.5q-13 -20 -34 -20q-20 0 -33 19q-7 11 -19.5 14
t-23.5 -4t-13.5 -19.5t3.5 -23.5q11 -18 34 -33t52 -15zM464 -3h-198q-31 0 -53 23t-22 55v575q0 32 22 54.5t53 22.5q13 0 22 9t9 22t-9 22t-22 9q-57 0 -97.5 -41t-40.5 -98v-575q0 -58 40.5 -99t97.5 -41h198q13 0 22 9t9 22t-9 22t-22 9v0zM757 789q-13 0 -22 -9t-9 -22
t9 -22t22 -9q31 0 53 -22.5t22 -54.5v-305q0 -13 9 -22.5t22 -9.5t22 9.5t9 22.5v305q0 57 -40 98t-97 41zM841 245l-228 -234l-110 114q-9 9 -22 9.5t-22.5 -8.5t-9.5 -22t9 -22l133 -137v-1h1l2 -2l1 -1q1 0 1 -1q1 0 4 -1q0 -1 0.5 -1t1.5 -1q1 0 4 -1h0.5h0.5q3 -1 6 -1
t6 1h1.5h0.5q3 1 4 1q1 1 1.5 1t0.5 1l3 1q1 1 2 1q0 1 1 1l2 2v0l1 1l250 257q9 9 8.5 22t-9.5 22t-22 8.5t-22 -9.5z" />
    <glyph glyph-name="tubiaozhizuomoban" unicode="&#xe657;" 
d="M64 384q0 -91 35.5 -174t95.5 -143t143 -95.5t174 -35.5t174 35.5t143 95.5t95.5 143t35.5 174t-35.5 174t-95.5 143t-143 95.5t-174 35.5t-174 -35.5t-143 -95.5t-95.5 -143t-35.5 -174zM590 384l-158 159q-9 8 -9 20.5t8.5 21.5t21 9t21.5 -9l180 -180q8 -9 8 -21.5
t-8 -20.5l-179 -179q-9 -9 -21.5 -9t-21 9t-8.5 21t9 21z" />
    <glyph glyph-name="search" unicode="&#xe662;" 
d="M692 646q-92 92 -221.5 92t-221 -91.5t-91.5 -221t91.5 -221.5t221 -92t221.5 92v0q91 92 91 221.5t-91 220.5v0zM181.5 136q-78.5 79 -106.5 184t0 210.5t106.5 184t184 106.5t210.5 0t184 -106.5t106.5 -184t0 -210.5t-106.5 -184t-184 -106.5t-210.5 0t-184 106.5z
M945.5 -49.5q-16.5 -16.5 -39.5 -16.5t-39 16l-79 79q-17 17 -17 40t16.5 39.5t39.5 16.5t40 -17l79 -79q16 -16 16 -39t-16.5 -39.5z" />
    <glyph glyph-name="rotate-alt" unicode="&#xe6bf;" 
d="M99 406q13 0 22.5 8.5t11.5 21.5q22 141 129 233.5t250 92.5q118 0 215 -66.5t141 -177.5q5 -14 18 -19.5t27 -0.5q22 9 22 34v221q0 14 -10.5 24.5t-25 10.5t-24.5 -10.5t-10 -24.5v-93q-41 53 -96 91q-116 81 -257 81q-82 0 -158 -28.5t-138 -82.5q-61 -53 -100 -124
t-52 -150q-2 -15 6.5 -26.5t22.5 -14.5h6zM930.5 361.5q-14.5 2.5 -26 -6t-13.5 -23.5q-22 -141 -129 -233.5t-250 -92.5q-117 0 -213 65t-141 174q-1 13 -11 21.5t-23 8.5q-14 0 -24.5 -10t-10.5 -25v-221q0 -15 10.5 -25t24.5 -10t24.5 10t10.5 25v89q41 -53 96 -91
q116 -81 257 -81q82 0 158 28.5t138 82.5q61 53 100 124t52 150q2 15 -6.5 26.5t-23 14z" />
    <glyph glyph-name="b2b-cart" unicode="&#xe670;" 
d="M476 454h79v-80q0 -15 10.5 -24.5t25.5 -8.5q12 1 21 11t9 22v79h78q13 0 23 8.5t11 21.5q1 14 -9 25t-24 11h-80v80q0 14 -10.5 23.5t-25.5 8.5q-12 -1 -21 -10.5t-9 -22.5v-79h-79q-15 0 -24.5 -10.5t-8.5 -25.5q1 -12 11 -20.5t23 -8.5zM328 111q-30 -2 -52 -24
t-24 -52q-2 -36 23.5 -61t60.5 -23q31 1 53 23t23 53q2 35 -23 60.5t-61 23.5zM839 111q-31 -2 -53 -24t-23 -52q-2 -36 23 -61t61 -23q30 1 52 23t24 53q2 35 -23.5 60.5t-60.5 23.5zM899 326q0 -41 -29 -70t-70 -29h-466q-24 0 -40.5 17t-16.5 40v407q0 50 -36 86t-86 36
h-68q-10 0 -17 -7t-7 -17v-31q0 -4 3 -7t8 -3h81q23 0 39.5 -17t16.5 -40v-473q0 -23 17 -40t40 -17h541q64 0 109.5 45.5t45.5 109.5v255q0 13 -10 20q-20 14 -37.5 4.5t-17.5 -28.5v-241z" />
    <glyph glyph-name="edit" unicode="&#xe673;" 
d="M940 727l-85 85q-22 22 -56 22q-29 0 -56 -22l-366 -366l-87 -256q-1 -1 -1.5 -3t-1.5 -7.5t-0.5 -9.5t4 -7.5t10.5 -3.5q11 0 17 3l256 87l366 366q23 23 23 56t-23 56zM366 238l50 149l99 -99zM563 319l-119 118l265 265l118 -118zM900 654l-31 -31l-118 118l31 31
q6 6 17 6t17 -6l84 -84q6 -6 6 -17t-6 -17zM877.5 412q-12.5 0 -20 -7.5t-7.5 -20.5v-309q0 -36 -24.5 -60.5t-60.5 -24.5h-562q-36 0 -60.5 24.5t-24.5 60.5v562q0 36 24.5 60.5t60.5 24.5h281q13 0 20.5 7.5t7.5 20t-7.5 20.5t-20.5 8h-281q-59 0 -100 -41t-41 -100v-562
q0 -59 41 -100t100 -41h562q59 0 100 41t41 100v309q0 13 -8 20.5t-20.5 7.5z" />
    <glyph glyph-name="confirm" unicode="&#xe67a;" 
d="M852 805q-19 29 -54 29h-574q-34 0 -53 -29l-109 -164v-643q0 -26 19 -45t45 -19h772q26 0 45 19t19 45v643zM908 -12h-792v594h792v-594zM116 648l96 132h602l94 -132h-792v0zM301 292l148 -131q1 -2 3 -4q11 -9 27 -9h1q15 0 26 9q2 2 4 5l234 264q12 10 12 24.5
t-12 24.5q-11 10 -26 10t-27 -10l-213 -244l-125 110q-10 10 -26 10t-26 -10q-12 -10 -12 -24.5t12 -24.5z" />
    <glyph glyph-name="success" unicode="&#xe653;" 
d="M508.5 832q-90.5 0 -173 -36t-142.5 -95.5t-95.5 -142.5t-35.5 -173.5t35.5 -173t95.5 -142.5t142.5 -95.5t173 -35.5t173 35.5t142.5 95.5t95.5 142.5t35.5 173t-35.5 173.5t-95.5 142.5t-142.5 95.5t-173 36zM509 -6q-107 0 -197.5 53t-142 143t-51.5 195q0 107 53 197
t143 142t195 52q107 0 197 -52t141.5 -142t51.5 -197t-51.5 -197t-141.5 -142t-197 -52zM665 536l-207 -207l-106 106q-12 13 -31 13t-36 -13q-9 -16 -7.5 -35.5t13.5 -31.5l134 -134q12 -12 30.5 -12t30.5 12l240 240q14 14 15 31t-15 31q-12 12 -30.5 12t-30.5 -12z
M665 536z" />
    <glyph glyph-name="digital" unicode="&#xe6fb;" 
d="M836 662h-251q-8 37 -38.5 62t-70.5 25h-193q-40 0 -70.5 -25t-38.5 -63q-47 -4 -79 -39t-32 -83v-397q0 -51 35.5 -86.5t86.5 -35.5h651q51 0 86.5 35.5t35.5 86.5v397q0 51 -35.5 87t-86.5 36zM283 697h193q18 0 32.5 -10t21.5 -25h-301q7 15 21.5 25t32.5 10zM906 142
q0 -29 -20.5 -49.5t-49.5 -20.5h-651q-29 0 -49.5 20.5t-20.5 49.5v397q0 29 20.5 49.5t49.5 20.5h651q29 0 49.5 -20.5t20.5 -49.5v-397zM440.5 571q-95.5 0 -163 -67.5t-67.5 -163t67.5 -163t163 -67.5t163 67.5t67.5 163t-67.5 163t-163 67.5zM440.5 162
q-73.5 0 -126 52.5t-52.5 126t52.5 126t126 52.5t125.5 -52.5t52 -126t-52 -126t-125.5 -52.5zM769 501q0 -16 11 -27t27 -11t27 11t11 27t-11 27t-27 11t-27 -11t-11 -27z" />
    <glyph glyph-name="name" unicode="&#xe6a0;" 
d="M630 298q-3 1 -6 3t-8 8t-8 14.5t-2.5 23t6.5 32.5v0q42 43 69 106.5t27 127.5q0 98 -56.5 153t-139.5 55t-139.5 -55t-56.5 -153q0 -65 27 -128.5t69 -106.5q7 -22 6.5 -36t-8 -24t-13 -14t-9.5 -6q-60 -21 -112 -49t-90 -64.5t-38 -70.5v-27q0 -120 365 -120
q363 0 363 120v27q0 35 -38.5 72t-92 64.5t-115.5 47.5z" />
    <glyph glyph-name="thumb" unicode="&#xe649;" 
d="M410 -66q-8 0 -17.5 6t-9.5 20t9 20t18 6h309q21 0 26 3q10 8 14 23q78 194 120 300l3 7q4 19 4.5 40t-7.5 36q-5 14 -30 34t-40 20h-187q-12 0 -16.5 9t-4.5 15q0 13 17 27q22 17 36.5 97.5t3.5 122.5q-7 32 -24 47.5t-33 15.5h-21q-21 0 -31 -6.5t-19 -18.5
q-13 -18 -13 -59v-54q0 -107 -51 -163q-58 -63 -143 -68l9 -428q0 -27 -15 -39.5t-37 -12.5h-128q-21 0 -36 12.5t-16 39.5v429q1 31 15.5 44.5t36.5 13.5h164q28 0 61.5 14.5t53.5 36.5q35 38 35 121v54q0 66 27 95q36 40 87 40h9q82 5 112 -95q6 -45 6.5 -78t-5 -61.5
t-11.5 -48t-20 -51.5h138q33 0 62 -19.5t48 -50.5q21 -35 21 -78q0 -30 -11 -58l-129 -319q-11 -21 -30 -30.5t-51 -10.5h-308h-1zM152 -14h128v436h-128v-436z" />
    <glyph glyph-name="email-alt" unicode="&#xe600;" 
d="M512 329l419 349q0 1 -2.5 1.5t-4.5 0.5h-824q-2 0 -4.5 -0.5t-2.5 -1.5zM962 642q0 5 -2 12l-297 -248l297 -298q2 8 2 9v525zM64 654q-2 -8 -2 -12v-525q0 -1 2 -9l298 298l-298 248v0zM634 382l-110 -92q-5 -4 -12 -4t-12 4l-110 92l-300 -300q7 -2 10 -2h825q2 0 9 2
z" />
    <glyph glyph-name="file" unicode="&#xe60d;" 
d="M796 833h-375q-18 0 -31.5 -13.5t-13.5 -31.5v-151q0 -19 -13 -31.5t-32 -12.5h-149q-19 0 -32 -13t-13 -32v-524q0 -37 26.5 -63.5t63.5 -26.5h569q36 0 62.5 26.5t26.5 63.5v719q0 37 -26 63.5t-63 26.5zM699 159h-375q-10 0 -16.5 6.5t-6.5 16t6.5 16t16.5 6.5h375
q9 0 15.5 -6.5t6.5 -16.5q0 -8 -7 -15t-15 -7zM699 309h-375q-10 0 -16.5 6.5t-6.5 16t6.5 16t16.5 6.5h375q9 0 15.5 -6.5t6.5 -16.5q0 -8 -7 -15t-15 -7zM699 459h-240q-10 0 -16.5 6.5t-6.5 16t6.5 16t16.5 6.5h240q9 0 15.5 -6.5t6.5 -15.5q0 -10 -7 -16.5t-15 -6.5z
M169 637h116q18 0 31 13t13 32v123q0 12 -5.5 14.5t-15.5 -6.5l-150 -155q-7 -8 -4 -14.5t15 -6.5z" />
    <glyph glyph-name="alipay" unicode="&#xe72f;" 
d="M629 471h-26v50h-45v-50h-85v-21h85v-157h45v157h26v21zM888 499h-99v22h-45v-22h-55v9h-42v-73h97v-34h-71v-22h71v-77h45v77h67v22h-67v34h74q12 11 19 27q3 9 4.5 18t1.5 14v5zM689 452v30h154v-30h-154zM486 521h-47q-1 -21 -17.5 -42t-33.5 -32l-16 -11l5 -13
q27 8 41 16v-146h44v177q10 12 16 24.5t7 19.5zM512 440l39 -39l-39 -39l-40 39zM839 372l27 -27l-27 -27l-27 27zM375 466v20h-96v35h-41v-35h-100v-20h100v-37h-71v-21h138q-4 -18 -22 -47t-47 -55q-37 -32 -74.5 -31t-53.5 27q-10 17 -1 30.5t20 21.5t12 8
q-1 0 -3.5 -0.5t-10 -2.5t-12.5 -5t-12.5 -8.5t-10 -12t-4 -16t4.5 -21.5q8 -18 23.5 -28.5t30.5 -14t33 -3t24.5 1.5t10.5 2v0q34 13 61.5 36t41.5 46.5t23.5 44.5t11.5 35l3 13h-75v37h96v0zM956 332l-68 -78q-8 -1 -22 -2t-58.5 -4.5t-81 -5t-90 -2.5t-85.5 2
q-168 12 -331 97q-28 14 -51.5 19t-37.5 2t-24 -10t-13.5 -12t-4.5 -8q0 -5 -1.5 -13t5.5 -23t21 -27q-1 1 -3 1.5t-7.5 4t-10.5 7.5t-10 10.5t-7.5 14t-3 18.5t3.5 22q7 20 26 29.5t43 8.5t41 -4t30 -7q2 0 48 -18.5t96.5 -35t87.5 -20.5q66 -7 156 -4t162 13zM903 503v19
h-8v2h20v-2h-8v-19h-4v0zM918 503v21h5l5 -15q1 -2 1 -3q1 1 1 2t1 2l6 14h4v-21h-3v18l-7 -18h-3l-7 18v-18h-3v0z" />
    <glyph glyph-name="csu" unicode="&#xe69f;" 
d="M818 496h-36v13q0 113 -80.5 193t-193 80t-193 -80t-80.5 -193v-13h-35q-40 0 -65 -25.5t-25 -64.5v-154q0 -37 26.5 -63.5t63.5 -26.5h46v0q0 -52 37 -89.5t90 -37.5h42q1 -18 15 -31t33 -13h92q20 0 34.5 14t14.5 34v32q0 20 -14.5 34t-34.5 14h-92q-19 0 -33 -13
t-15 -32h-42q-37 0 -62.5 26t-25.5 62v8l1 1q1 1 1 2h1q0 1 1 2v0l0.5 1l0.5 1v0l1 1v1v0q0 1 0.5 1.5l0.5 0.5v1q1 1 1 2v0v2v0l1 2v1v1v1v318q0 89 63 152t151.5 63t151.5 -63t63 -152v-318q0 -12 8.5 -20.5t20.5 -8.5h66q37 0 63.5 26.5t26.5 63.5v154q0 39 -25 64.5
t-65 25.5zM169 252v154q0 31 31 31h35v-217h-35q-13 0 -22 9.5t-9 22.5zM850 252q0 -13 -9.5 -22.5t-22.5 -9.5h-36v217h36q32 0 32 -31v-154z" />
    <glyph glyph-name="qi" unicode="&#xe626;" 
d="M732 476h-2l-265 -28v123q0 10 -7.5 17.5t-18 7.5t-18 -7.5t-7.5 -17.5v-128l-125 -13q-10 -1 -17 -9.5t-6 -18.5t8.5 -16.5t17.5 -6.5h1h1l120 13v-111q0 -55 21 -79q24 -30 88 -30h122q35 0 54 9q34 17 34 63q0 11 -7.5 18.5t-18 7.5t-18 -7.5t-7.5 -18.5
q0 -14 -5.5 -17.5t-31.5 -3.5h-122q-39 0 -49 11q-9 10 -9 47v116l270 28q10 1 17 9t6 19q-1 9 -8.5 16t-17.5 7zM512 832q-185 0 -316.5 -131.5t-131.5 -316.5t131.5 -316.5t316.5 -131.5t316.5 131.5t131.5 316.5t-131.5 316.5t-316.5 131.5zM512 -6q-106 0 -195.5 52.5
t-142 142t-52.5 195.5t52.5 195.5t142 142t195.5 52.5t195.5 -52.5t142 -142t52.5 -195.5t-52.5 -195.5t-142 -142t-195.5 -52.5z" />
    <glyph glyph-name="watch" unicode="&#xe622;" 
d="M733 616v171q0 1 0.5 10.5t0 13t-1.5 10t-4 9t-8 2.5h-389q-12 0 -28.5 -16.5t-16.5 -28.5v-176q-46 -48 -74 -109.5t-28 -128.5t28 -129t74 -109v-186q0 -4 3 -7t9 -4t10 -1.5t12.5 0t10.5 0.5h389h8q4 -1 4.5 0t0.5 5v7v181q107 82 107 243t-107 243zM344 774h332v-115
q-76 43 -164 43q-42 0 -78.5 -10.5t-89.5 -35.5v118zM676 -5h-332v95q53 -25 89.5 -35.5t78.5 -10.5q88 0 164 43v-92zM520.5 99q-111.5 0 -190 78.5t-78.5 190t78.5 190.5t190 79t190.5 -79t79 -190.5t-79 -190t-190.5 -78.5zM538 335h-56q-2 0 -2 2v205q0 2 2 2h56
q2 0 2 -2v-205q0 -2 -2 -2zM660 393v-56q0 -2 -2 -2h-176q-2 0 -2 2v56q0 2 2 2h176q2 0 2 -2z" />
    <glyph glyph-name="map-marker-alt" unicode="&#xe606;" 
d="M512 832q-92 0 -169 -45t-122 -122t-45 -169q0 -39 10.5 -79t24 -70t43 -75t48.5 -70.5t61 -78.5q10 -14 36.5 -49t46 -64t36.5 -59q15 -15 30 -15t30 15q22 35 67 94.5t52 70.5q5 6 15 19q38 52 56.5 77.5t45 68.5t39 72.5t22 67.5t9.5 75q0 92 -45 169t-122 122
t-169 45zM512 384q-46 0 -79 33t-33 79t33 79t79 33t79 -33t33 -79t-33 -79t-79 -33z" />
    <glyph glyph-name="left" unicode="&#xe609;" 
d="M686 -50l-406 406q-12 12 -12 28q0 17 12 28l406 407q12 11 28.5 12.5t28.5 -9.5q13 -11 13 -28.5t-12 -29.5l-380 -380v-1l380 -381q12 -11 12 -28t-13 -29q-12 -10 -28.5 -8.5t-28.5 13.5z" />
    <glyph glyph-name="down" unicode="&#xe60a;" 
d="M946 558l-406 -406q-12 -12 -28 -12q-17 0 -28 12l-407 406q-11 12 -12.5 28.5t9.5 28.5q11 13 28.5 13t29.5 -12l380 -380h1l381 380q11 12 28 12t29 -13q10 -12 8.5 -28.5t-13.5 -28.5z" />
    <glyph glyph-name="up" unicode="&#xe60b;" 
d="M78 210l406 406q12 12 28 12q17 0 28 -12l407 -406q11 -12 12.5 -28.5t-9.5 -28.5q-11 -13 -28.5 -13t-29.5 12l-380 380h-1l-380 -380q-12 -12 -29 -12t-29 13q-10 12 -8.5 28.5t13.5 28.5z" />
    <glyph glyph-name="right" unicode="&#xe60c;" 
d="M338 818l406 -406q12 -12 12 -28q0 -17 -12 -28l-406 -407q-12 -11 -28.5 -12.5t-28.5 9.5q-13 11 -13 28.5t12 29.5l380 380v1l-380 381q-12 11 -12 28t13 29q12 10 28.5 8.5t28.5 -13.5z" />
    <glyph glyph-name="trophy" unicode="&#xe625;" 
d="M512 832q-185 0 -316.5 -131.5t-131.5 -316.5t131.5 -316.5t316.5 -131.5t316.5 131.5t131.5 316.5t-131.5 316.5t-316.5 131.5zM512 -6q-106 0 -195.5 52.5t-142 142t-52.5 195.5t52.5 195.5t142 142t195.5 52.5t195.5 -52.5t142 -142t52.5 -195.5t-52.5 -195.5
t-142 -142t-195.5 -52.5zM782 552q0 9 -5.5 14.5t-14.5 5.5h-55v4q0 19 -2 40q0 8 -6 13.5t-14 5.5h-347q-8 0 -14 -5.5t-6 -13.5q-2 -22 -2 -40v-4h-54q-9 0 -14.5 -5.5t-5.5 -14.5q-4 -71 28 -129t97 -71h3q20 -36 46 -59q35 -32 75 -39v-80h-77q-8 0 -14 -6t-6 -14t5 -14
t13 -7v0h197q8 0 14 6t6 14.5t-6 14.5t-14 6h-77v80q40 7 75 39q26 23 46 58q2 0 5 1q64 13 96 71t28 129zM282 531v1h36q6 -72 29 -131q-27 15 -45.5 48.5t-19.5 81.5zM654 467q-12 -50 -33.5 -89.5t-49.5 -61.5q-29 -22 -59.5 -22t-59.5 22q-28 22 -50 61q-21 40 -34 90
q-12 53 -12 109v18h310q1 -12 1 -18q0 -56 -13 -109zM676 400q15 39 22 83q1 5 2 7q3 19 5 40v0v2h37q-1 -49 -19.5 -83.5t-46.5 -48.5z" />
    <glyph glyph-name="switch-list" unicode="&#xe624;" 
d="M64 832h414v-414h-413zM546 832h414v-69h-414v69zM546 625h414v-69h-414v69zM546 418h414v-68h-414v68zM546 5h414v-69h-414v69zM546 212h414v-69h-414v69zM64 350h414v-413h-413z" />
    <glyph glyph-name="switch-grid" unicode="&#xe62a;" 
d="M64 832h414v-413h-414v413zM546 832h414v-413h-414v413zM64 350h414v-414h-414v414zM546 350h414v-414h-414v414z" />
    <glyph glyph-name="store-alt" unicode="&#xe63c;" 
d="M64 832v-896h896v896h-896zM684 763v-207h-138v207h138zM478 763v-207h-138v207h138zM133 763h138v-207h-138v207zM753 5v345h-482v-345h-138v482h758v-482h-138v0zM891 556h-138v207h138v-207z" />
    <glyph glyph-name="qq" unicode="&#xe62c;" 
d="M346 408l-1 3l-1 3v2v9v3l1 3l1 4l2 4l2 4l3 4v3v2l1 4l1 4l1 5l1 2l1 2l1 2l2 1v10l1 6v6l2 7l2 8l2 4l1 4l2 5l2 4l2 5l3 5l2 5l4 5l1 2l2 3l3 5l4 5l4 6l5 5l5 5l5 5l6 6l4 4l5 3l5 4l5 3l5 3l6 2l6 3l6 2l6 2l7 2l6 1l7 2l7 1l14 2h7h22l14 -2h7l7 -2l7 -2l7 -1l8 -2
l6 -3l7 -2l7 -3l6 -4l6 -3l6 -4l6 -4l2 -2l3 -1l4 -4l4 -4l4 -4l4 -5l4 -4l4 -5l2 -5l3 -4l3 -5l2 -4l4 -10l2 -4l4 -10l1 -4l1 -4l1 -5l2 -8l2 -7l1 -7l1 -6l1 -8v-1l1 -2l3 -4l2 -3l1 -3l2 -4l2 -4l1 -4l1 -4l1 -5v-2l1 -3v-2l-1 -3v-3v-3l-2 -5l-1 -3l-1 -3v-1v-1l2 -2
l6 -10l5 -7l3 -4l3 -6l3 -5l3 -6l3 -7l4 -8l2 -5l2 -4l2 -5l1 -4l1 -5l2 -4l1 -9l1 -8l1 -8v-11v-4l-1 -6l-1 -6l-2 -5l-1 -3l-1 -2l-1 -2l-1 -2l-1 -2l-2 -2l-1 -1l-2 -1l-2 -1l-1 -1h-1h-2h-2l-2 1l-1 1l-1 1l-2 1l-1 1l-2 3l-2 3l-2 3l-2 3l-2 3l-3 6l-3 6v0h-1l-1 -1
l-1 -1l-1 -2l-2 -6l-3 -8l-4 -10l-3 -5l-3 -5l-4 -6l-4 -5l-2 -3l-3 -3l-5 -5l1 -1l3 -2l11 -6l6 -3l5 -3l4 -3l5 -4l2 -1l1 -2l2 -2l1 -3l1 -2l1 -2v-2l1 -3l-1 -1v-2v-2l-1 -1v-1l-1 -2l-2 -3l-2 -2l-2 -2l-1 -1l-3 -3l-4 -2l-4 -2l-4 -2l-5 -1l-2 -1l-3 -1l-5 -1l-6 -1
l-5 -1l-6 -1l-7 -1l-6 -1h-21l-7 1l-7 1l-7 1h-7l-8 1l-7 2l-7 2l-8 2l-7 2l-7 3l-4 1l-3 1l-3 1h-2h-6l-7 1h-3l-5 1l-3 -3l-4 -2l-5 -3l-6 -3l-3 -2l-4 -2l-9 -3l-4 -1l-5 -1l-6 -2h-5h-4l-4 -1h-6h-21h-13l-11 1l-18 3l-6 1l-5 2l-5 1l-5 2l-4 2l-4 2l-4 2l-4 2l-1 2
l-1 1l-2 2l-1 1l-1 2l-1 1l-1 4v1l-1 2v2l1 2v2v2v4l1 2v2l1 3l2 3l1 1l1 1l2 3l2 1l1 1l2 2h2l2 2l3 1l3 1h2l4 1l3 1h3h4l2 1v0v0v1v1l-3 1l-5 4l-3 3l-5 4l-4 4l-4 5l-5 6l-2 3l-2 3l-2 4l-2 4l-3 4l-2 4l-2 5l-2 5l-1 4l-1 6h-1v0v1h-1l-1 -1l-1 -1v-1v-1l-1 -2l-3 -4
l-1 -3l-2 -2l-2 -3l-2 -3l-3 -2l-3 -3l-2 -3l-3 -1l-4 -3l-3 -1l-3 -1h-4h-1h-1v2h-1l-2 4l-1 2l-1 2v3l-1 3l-1 6v4v11v9l1 5l1 4v5l2 5l1 6l2 5l2 5l2 5l3 6l2 5l3 5l4 6l4 5l4 6l3 4l4 5l5 4l2 2l2 3l4 3l3 3l6 6l5 3zM512 807q115 0 212 -57t154 -154t57 -212t-57 -212
t-154 -154t-212 -57t-212 57t-154 154t-57 212t57 212t154 154t212 57zM512 832q-91 0 -174 -35.5t-143 -95.5t-95.5 -143t-35.5 -174t35.5 -174t95.5 -143t143 -95.5t174 -35.5t174 35.5t143 95.5t95.5 143t35.5 174t-35.5 174t-95.5 143t-143 95.5t-174 35.5z" />
    <glyph glyph-name="weibo" unicode="&#xe62d;" 
d="M631 389q-9 2 -11.5 5.5t-0.5 5.5l2 3q2 3 4.5 9t2 20t-10.5 24q-16 12 -37 11t-40 -8l-19 -7q-17 -5 -18.5 1.5t3.5 22.5q0 65 -77 39q-31 -10 -63 -36.5t-48 -47.5l-17 -21q-18 -24 -27 -48t-9 -36v-12q12 -110 188 -124q66 -5 133.5 21.5t91.5 76.5q10 26 9 44.5
t-13 31t-23 18t-20 7.5zM459 216q-61 -3 -104 23.5t-43 66.5q0 39 42.5 68t104.5 31q61 3 103.5 -20t42.5 -62q0 -40 -43 -72t-103 -35zM442 370q-22 -2 -38 -12t-22 -22t-9 -23.5t-3 -18.5v-8q0 -24 22 -36q37 -18 69.5 -11t52.5 32q9 12 10 30t-6 35t-27 27.5t-49 6.5z
M421.5 264.5q-11.5 -1.5 -19.5 4.5t-8 15q0 10 7.5 18t18.5 9q13 2 21 -4.5t8 -16.5q0 -9 -8 -16.5t-19.5 -9zM470 305q-10 -7 -14 1q-6 9 3 16q10 7 15 -2q5 -8 -4 -15zM671 422q11 0 13 11v1q3 25 -3.5 41.5t-18 22.5t-23 8.5t-20.5 1.5l-8 -1q-6 0 -10 -4t-4 -9.5t4 -9
t10 -3.5q17 3 27.5 0t14.5 -10.5t5 -15.5t0 -14l-1 -6q0 -6 4 -9.5t10 -3.5zM661 576q-29 6 -67 -1l-0.5 -0.5l-0.5 -0.5h-1q-14 -4 -14 -19q0 -8 5.5 -13.5t13.5 -5.5q11 2 18 4q5 2 21 0.5t39 -13.5t36 -34q15 -33 6 -63q-4 -10 -4 -19q0 -7 5.5 -12t14.5 -5q16 0 18 16v0
q10 40 6.5 68.5t-20.5 49t-36 32t-40 16.5zM661 576zM512 807q115 0 212 -57t154 -154t57 -212t-57 -212t-154 -154t-212 -57t-212 57t-154 154t-57 212t57 212t154 154t212 57zM512 832q-91 0 -174 -35.5t-143 -95.5t-95.5 -143t-35.5 -174t35.5 -174t95.5 -143t143 -95.5
t174 -35.5t174 35.5t143 95.5t95.5 143t35.5 174t-35.5 174t-95.5 143t-143 95.5t-174 35.5z" />
    <glyph glyph-name="weibos" unicode="&#xe62e;" 
d="M512 832q-91 0 -174 -35.5t-143 -95.5t-95.5 -143t-35.5 -174t35.5 -174t95.5 -143t143 -95.5t174 -35.5t174 35.5t143 95.5t95.5 143t35.5 174t-35.5 174t-95.5 143t-143 95.5t-174 35.5zM631 389q-9 2 -11.5 5.5t-0.5 5.5l2 3q2 3 4.5 9t2 20t-10.5 24q-16 12 -37 11
t-40 -8l-19 -7q-17 -5 -18.5 1.5t3.5 22.5q0 65 -77 39q-31 -10 -63 -36.5t-48 -47.5l-17 -21q-18 -24 -27 -48t-9 -36v-12q12 -110 188 -124q66 -5 133.5 21.5t91.5 76.5q10 26 9 44.5t-13 31t-23 18t-20 7.5zM459 216q-61 -3 -104 23.5t-43 66.5q0 39 42.5 68t104.5 31
q61 3 103.5 -20t42.5 -62q0 -40 -43 -72t-103 -35zM442 370q-22 -2 -38 -12t-22 -22t-9 -23.5t-3 -18.5v-8q0 -24 22 -36q37 -18 69.5 -11t52.5 32q9 12 10 30t-6 35t-27 27.5t-49 6.5zM421.5 264.5q-11.5 -1.5 -19.5 4.5t-8 15q0 10 7.5 18t18.5 9q13 2 21 -4.5t8 -16.5
q0 -9 -8 -16.5t-19.5 -9zM470 305q-10 -7 -14 1q-6 9 3 16q10 7 15 -2q5 -8 -4 -15zM671 422q11 0 13 11v1q3 25 -3.5 41.5t-18 22.5t-23 8.5t-20.5 1.5l-8 -1q-6 0 -10 -4t-4 -9.5t4 -9t10 -3.5q17 3 27.5 0t14.5 -10.5t5 -15.5t0 -14l-1 -6q0 -6 4 -9.5t10 -3.5zM661 576
q-29 6 -67 -1l-0.5 -0.5l-0.5 -0.5h-1q-14 -4 -14 -19q0 -8 5.5 -13.5t13.5 -5.5q11 2 18 4q5 2 21 0.5t39 -13.5t36 -34q15 -33 6 -63q-4 -10 -4 -19q0 -7 5.5 -12t14.5 -5q16 0 18 16v0q10 40 6.5 68.5t-20.5 49t-36 32t-40 16.5zM661 576z" />
    <glyph glyph-name="qqs" unicode="&#xe62f;" 
d="M512 832q-91 0 -174 -35.5t-143 -95.5t-95.5 -143t-35.5 -174t35.5 -174t95.5 -143t143 -95.5t174 -35.5t174 35.5t143 95.5t95.5 143t35.5 174t-35.5 174t-95.5 143t-143 95.5t-174 35.5zM346 408l-1 3l-1 3v2v9v3l1 3l1 4l2 4l2 4l3 4v3v2l1 4l1 4l1 5l1 2l1 2l1 2l2 1
v10l1 6v6l2 7l2 8l2 4l1 4l2 5l2 4l2 5l3 5l2 5l4 5l1 2l2 3l3 5l4 5l4 6l5 5l5 5l5 5l6 6l4 4l5 3l5 4l5 3l5 3l6 2l6 3l6 2l6 2l7 2l6 1l7 2l7 1l14 2h7h22l14 -2h7l7 -2l7 -2l7 -1l8 -2l6 -3l7 -2l7 -3l6 -4l6 -3l6 -4l6 -4l2 -2l3 -1l4 -4l4 -4l4 -4l4 -5l4 -4l4 -5
l2 -5l3 -4l3 -5l2 -4l4 -10l2 -4l4 -10l1 -4l1 -4l1 -5l2 -8l2 -7l1 -7l1 -6l1 -8v-1l1 -2l3 -4l2 -3l1 -3l2 -4l2 -4l1 -4l1 -4l1 -5v-2l1 -3v-2l-1 -3v-3v-3l-2 -5l-1 -3l-1 -3v-1v-1l2 -2l6 -10l5 -7l3 -4l3 -6l3 -5l3 -6l3 -7l4 -8l2 -5l2 -4l2 -5l1 -4l1 -5l2 -4l1 -9
l1 -8l1 -8v-11v-4l-1 -6l-1 -6l-2 -5l-1 -3l-1 -2l-1 -2l-1 -2l-1 -2l-2 -2l-1 -1l-2 -1l-2 -1l-1 -1h-1h-2h-2l-2 1l-1 1l-1 1l-2 1l-1 1l-2 3l-2 3l-2 3l-2 3l-2 3l-3 6l-3 6v0h-1l-1 -1l-1 -1l-1 -2l-2 -6l-3 -8l-4 -10l-3 -5l-3 -5l-4 -6l-4 -5l-2 -3l-3 -3l-5 -5l1 -1
l3 -2l11 -6l6 -3l5 -3l4 -3l5 -4l2 -1l1 -2l2 -2l1 -3l1 -2l1 -2v-2l1 -3l-1 -1v-2v-2l-1 -1v-1l-1 -2l-2 -3l-2 -2l-2 -2l-1 -1l-3 -3l-4 -2l-4 -2l-4 -2l-5 -1l-2 -1l-3 -1l-5 -1l-6 -1l-5 -1l-6 -1l-7 -1l-6 -1h-21l-7 1l-7 1l-7 1h-7l-8 1l-7 2l-7 2l-8 2l-7 2l-7 3
l-4 1l-3 1l-3 1h-2h-6l-7 1h-3l-5 1l-3 -3l-4 -2l-5 -3l-6 -3l-3 -2l-4 -2l-9 -3l-4 -1l-5 -1l-6 -2h-5h-4l-4 -1h-6h-21h-13l-11 1l-18 3l-6 1l-5 2l-5 1l-5 2l-4 2l-4 2l-4 2l-4 2l-1 2l-1 1l-2 2l-1 1l-1 2l-1 1l-1 4v1l-1 2v2l1 2v2v2v4l1 2v2l1 3l2 3l1 1l1 1l2 3l2 1
l1 1l2 2h2l2 2l3 1l3 1h2l4 1l3 1h3h4l2 1v0v0v1v1l-3 1l-5 4l-3 3l-5 4l-4 4l-4 5l-5 6l-2 3l-2 3l-2 4l-2 4l-3 4l-2 4l-2 5l-2 5l-1 4l-1 6h-1v0v1h-1l-1 -1l-1 -1v-1v-1l-1 -2l-3 -4l-1 -3l-2 -2l-2 -3l-2 -3l-3 -2l-3 -3l-2 -3l-3 -1l-4 -3l-3 -1l-3 -1h-4h-1h-1v2h-1
l-2 4l-1 2l-1 2v3l-1 3l-1 6v4v11v9l1 5l1 4v5l2 5l1 6l2 5l2 5l2 5l3 6l2 5l3 5l4 6l4 5l4 6l3 4l4 5l5 4l2 2l2 3l4 3l3 3l6 6l5 3z" />
    <glyph glyph-name="wechat" unicode="&#xe630;" 
d="M512 807q115 0 212 -57t154 -154t57 -212t-57 -212t-154 -154t-212 -57t-212 57t-154 154t-57 212t57 212t154 154t212 57zM512 832q-91 0 -174 -35.5t-143 -95.5t-95.5 -143t-35.5 -174t35.5 -174t95.5 -143t143 -95.5t174 -35.5t174 35.5t143 95.5t95.5 143t35.5 174
t-35.5 174t-95.5 143t-143 95.5t-174 35.5zM604 468q8 0 18 -2q-12 56 -65 92.5t-121 36.5q-76 0 -129.5 -45.5t-53.5 -110.5q0 -73 73 -124l-18 -55l64 32q47 -9 64 -9q7 0 17 1q-5 19 -5 38q0 60 45.5 103t110.5 43zM505 517q10 0 16.5 -6t6.5 -16.5t-6.5 -17t-16.5 -6.5
q-11 0 -19.5 6.5t-8.5 16.5t8.5 16.5t19.5 6.5zM376 471q-10 0 -18.5 6.5t-8.5 16.5t8.5 16.5t18.5 6.5q11 0 17 -6t6 -16.5t-6 -17t-17 -6.5zM772 324q0 55 -47 94.5t-109 39.5q-66 0 -111.5 -39t-45.5 -94.5t45.5 -94.5t111.5 -39q18 0 55 9l50 -27l-14 45q65 49 65 106z
M565 347q-7 0 -13 6t-6 13t6 12.5t13 5.5q10 0 16.5 -5.5t6.5 -13t-6.5 -13t-16.5 -5.5zM666 347q-7 0 -12.5 6t-5.5 13t5.5 12.5t12.5 5.5q10 0 16.5 -5.5t6.5 -13t-6.5 -13t-16.5 -5.5z" />
    <glyph glyph-name="Pay" unicode="&#xe632;" 
d="M512 807q115 0 212 -57t154 -154t57 -212t-57 -212t-154 -154t-212 -57t-212 57t-154 154t-57 212t57 212t154 154t212 57zM512 832q-91 0 -174 -35.5t-143 -95.5t-95.5 -143t-35.5 -174t35.5 -174t95.5 -143t143 -95.5t174 -35.5t174 35.5t143 95.5t95.5 143t35.5 174
t-35.5 174t-95.5 143t-143 95.5t-174 35.5zM495 302q-28 -37 -61.5 -56t-62 -20t-46 2t-26.5 8q-20 5 -30 26t-3 44.5t30 34.5q91 29 207 -29zM582 330q16 29 28.5 61.5t16.5 49.5l5 18h-124v47h144v18h-144v71h-65v-71h-131v-21h131v-47h-110v-21h225q0 -3 -2 -8
q0 -23 -29 -81q-35 13 -65 22t-52 11.5t-39 3.5t-30.5 -2t-20 -4.5t-14 -5.5l-7.5 -4q-31 -22 -43 -48.5t-6.5 -48.5t17 -40.5t24 -28.5t18.5 -10q147 -32 247 87q2 -3 10 -3q16 -9 68.5 -34.5t96.5 -46.5l45 -21v100q-37 3 -194 57z" />
    <glyph glyph-name="Pays" unicode="&#xe633;" 
d="M512 832q-91 0 -174 -35.5t-143 -95.5t-95.5 -143t-35.5 -174t35.5 -174t95.5 -143t143 -95.5t174 -35.5t174 35.5t143 95.5t95.5 143t35.5 174t-35.5 174t-95.5 143t-143 95.5t-174 35.5zM495 302q-28 -37 -61.5 -56t-62 -20t-46 2t-26.5 8q-20 5 -30 26t-3 44.5
t30 34.5q91 29 207 -29zM582 330q16 29 28.5 61.5t16.5 49.5l5 18h-124v47h144v18h-144v71h-65v-71h-131v-21h131v-47h-110v-21h225q0 -3 -2 -8q0 -23 -29 -81q-35 13 -65 22t-52 11.5t-39 3.5t-30.5 -2t-20 -4.5t-14 -5.5l-7.5 -4q-31 -22 -43 -48.5t-6.5 -48.5t17 -40.5
t24 -28.5t18.5 -10q147 -32 247 87q2 -3 10 -3q16 -9 68.5 -34.5t96.5 -46.5l45 -21v100q-37 3 -194 57z" />
    <glyph glyph-name="wechats" unicode="&#xe634;" 
d="M512 832q-91 0 -174 -35.5t-143 -95.5t-95.5 -143t-35.5 -174t35.5 -174t95.5 -143t143 -95.5t174 -35.5t174 35.5t143 95.5t95.5 143t35.5 174t-35.5 174t-95.5 143t-143 95.5t-174 35.5zM604 468q8 0 18 -2q-12 56 -65 92.5t-121 36.5q-76 0 -129.5 -45.5t-53.5 -110.5
q0 -73 73 -124l-18 -55l64 32q47 -9 64 -9q7 0 17 1q-5 19 -5 38q0 60 45.5 103t110.5 43zM505 517q10 0 16.5 -6t6.5 -16.5t-6.5 -17t-16.5 -6.5q-11 0 -19.5 6.5t-8.5 16.5t8.5 16.5t19.5 6.5zM376 471q-10 0 -18.5 6.5t-8.5 16.5t8.5 16.5t18.5 6.5q11 0 17 -6t6 -16.5
t-6 -17t-17 -6.5zM772 324q0 55 -47 94.5t-109 39.5q-66 0 -111.5 -39t-45.5 -94.5t45.5 -94.5t111.5 -39q18 0 55 9l50 -27l-14 45q65 49 65 106zM565 347q-7 0 -13 6t-6 13t6 12.5t13 5.5q10 0 16.5 -5.5t6.5 -13t-6.5 -13t-16.5 -5.5zM666 347q-7 0 -12.5 6t-5.5 13
t5.5 12.5t12.5 5.5q10 0 16.5 -5.5t6.5 -13t-6.5 -13t-16.5 -5.5z" />
    <glyph glyph-name="friends" unicode="&#xe635;" 
d="M512 832q-91 0 -174 -35.5t-143 -95.5t-95.5 -143t-35.5 -174t35.5 -174t95.5 -143t143 -95.5t174 -35.5t174 35.5t143 95.5t95.5 143t35.5 174t-35.5 174t-95.5 143t-143 95.5t-174 35.5zM512 648q-15 0 -29 -1q-36 -4 -69 -18q178 -176 183 -182v187q-7 3 -16 5
q-34 9 -69 9zM698 572q-10 10 -22 20q-28 22 -61 36q1 -250 0 -258l133 132q-4 8 -8 15q-18 31 -42 55zM756 482q-176 -178 -182 -183h188q2 8 5 17q9 33 9 68q0 15 -2 29q-4 35 -18 69zM495 280l133 -133q8 4 15 8q30 17 55 42q10 10 19 22q23 28 36 61l-65 -0.5t-122 -0.5
t-71 1zM427 321v-187q9 -4 17 -5q33 -9 68 -9q15 0 29 1q36 4 69 18q-178 176 -183 182zM409 399l-133 -132q3 -7 8 -15q17 -30 42 -55q10 -10 22 -20q28 -22 61 -36v258zM258 452q-10 -33 -10 -68q0 -15 2 -29q4 -36 18 -69q176 178 182 183h-188q-2 -7 -4 -17zM380 612
q-30 -17 -55 -42q-10 -10 -20 -22q-22 -28 -36 -61q250 2 258 0l-132 133q-7 -3 -15 -8z" />
    <glyph glyph-name="qq-space" unicode="&#xe636;" 
d="M512 832q-91 0 -174 -35.5t-143 -95.5t-95.5 -143t-35.5 -174t35.5 -174t95.5 -143t143 -95.5t174 -35.5t174 35.5t143 95.5t95.5 143t35.5 174t-35.5 174t-95.5 143t-143 95.5t-174 35.5zM405 303q5 6 46 31t79 46l39 22l-198 27l264 3q10 -8 0 -19q-4 -5 -41.5 -32
t-72.5 -51l-36 -24l160 -13l-5 28l129 125l-178 26l-79 151l-79 -151l-178 -26l129 -125l-31 -176l159 83l159 -83l-25 145l-241 -11q-12 11 0 24z" />
    <glyph glyph-name="hint" unicode="&#xe63d;" 
d="M512 832q-185 0 -316.5 -131.5t-131.5 -316.5t131.5 -316.5t316.5 -131.5t316.5 131.5t131.5 316.5t-131.5 316.5t-316.5 131.5zM512 -14q-108 0 -200 53t-145 145t-53 200t53 200t145 145t200 53t200 -53t145 -145t53 -200t-53 -200t-145 -145t-200 -53zM512 271
q22 0 38 16t16 38v305q0 22 -16 38t-38 16t-38 -16t-16 -38v-305q0 -22 16 -38t38 -16zM444 152q0 -28 20 -48t48 -20t48 20t20 48t-20 48t-48 20t-48 -20t-20 -48z" />
    <glyph glyph-name="arrow-down" unicode="&#xe640;" 
d="M536 -52l414 414q10 10 10 24.5t-10 24.5t-24.5 10t-24.5 -10l-355 -355v739q0 15 -10 25t-24 10t-24.5 -10t-10.5 -25v-739l-354 355q-10 10 -24.5 10t-24.5 -10t-10 -25q0 -14 10 -24l414 -414q10 -10 24 -10t24 10z" />
    <glyph glyph-name="arrow-up" unicode="&#xe641;" 
d="M488 820l-414 -414q-10 -10 -10 -24.5t10 -24.5t24.5 -10t24.5 10l355 355v-739q0 -15 10 -25t24 -10t24 10t10 25v739l355 -355q10 -10 24.5 -10t24.5 10t10 24.5t-10 24.5l-414 414q-10 10 -24 10t-24 -10z" />
    <glyph glyph-name="collection" unicode="&#xe643;" 
d="M716 -10q-19 0 -37 9l-167 88l-167 -88q-17 -9 -37 -9q-25 0 -45 13q-18 13 -27 33t-5 42l33 192l-141 138q-34 33 -19 78q7 20 24 33.5t38 16.5l192 28l84 171q9 19 28.5 31t41.5 12t41.5 -12t28.5 -31l84 -171l192 -28q21 -3 38 -16.5t24 -33.5q15 -45 -19 -78
l-141 -138l33 -193q4 -21 -5 -41t-27 -33q-20 -13 -45 -13v0zM512 735q-22 0 -32 -19l-93 -191l-214 -31q-21 -3 -28 -23q-7 -18 8 -32l157 -154l-37 -215q-3 -19 14 -31q10 -6 21 -6q9 0 17 4l187 99l187 -99q8 -4 17 -4q12 0 21 6q17 12 14 31l-37 215l157 154q15 14 8 33
q-6 19 -28 22l-214 31l-93 191q-10 19 -32 19zM512 735z" />
    <glyph glyph-name="collection-alt" unicode="&#xe645;" 
d="M716 -10q-19 0 -37 9l-167 88l-167 -88q-17 -9 -37 -9q-25 0 -45 13q-18 13 -27 33t-5 42l33 192l-141 138q-34 33 -19 78q7 20 24 33.5t38 16.5l192 28l84 171q9 19 28.5 31t41.5 12t41.5 -12t28.5 -31l84 -171l192 -28q21 -3 38 -16.5t24 -33.5q15 -45 -19 -78
l-141 -138l33 -193q4 -21 -5 -41t-27 -33q-20 -13 -45 -13v0z" />
    <glyph glyph-name="zan-alts" unicode="&#xe646;" 
d="M511 8q-7 0 -13 3q-45 22 -112 76t-129 123q-70 77 -110 151q-46 87 -46 159q0 119 85 186q68 54 157 54q52 0 105 -32q33 -19 63 -47q29 28 62 47q54 32 106 32q88 0 156 -54q85 -67 85 -186q0 -72 -46 -159q-40 -74 -110 -151q-61 -69 -128.5 -123t-112.5 -77
q-5 -2 -12 -2z" />
    <glyph glyph-name="qr-code" unicode="&#xe647;" 
d="M300 771v-175h-175v175h175zM361 832h-297v-297h297v297zM566 832h-103v-896h103v896zM960 433h-195v-103h195v103zM653 433h-287v-103h287v103zM259 433h-195v-103h195v103zM243 714h-61v-61h61v61zM899 771v-175h-175v175h175zM960 832h-297v-297h297v297zM842 714h-61
v-61h61v61zM755 233h-92v-92h92v92zM960 233h-92v-215h92v215zM960 28h-297v-92h297v92zM300 172v-175h-175v175h175zM361 233h-297v-297h297v297zM243 115h-61v-61h61v61z" />
    <glyph glyph-name="bind" unicode="&#xe65b;" 
d="M594 435q-9 0 -16 5q-17 9 -17 28t17 28q7 5 16 5t17 -4q16 -10 16 -29t-16 -28q-8 -5 -17 -5v0zM505 345q-9 0 -17 4q-16 10 -16 29q0 13 9.5 23t23 10t23.5 -10t10 -23q0 -19 -17 -29q-7 -4 -16 -4v0zM415 255q-8 0 -16 5q-17 9 -17 28t17 29q8 4 16.5 4t16.5 -4
q16 -10 16 -29t-16 -28q-8 -5 -17 -5v0zM260 -51q-58 0 -99 41l-46 45q-41 41 -41 100t41 99l174 175q41 41 100 41h10q12 -1 20 -10.5t7 -21.5q0 -12 -9 -20t-21 -8h-1q-2 1 -4 1v0q-36 0 -60 -24l-174 -175q-24 -23 -24 -57t24 -58l46 -45q23 -24 57 -24t58 24l174 174
q22 22 24 52q0 12 9 20t21 8h1q12 -1 20 -10.5t8 -21.5q-3 -52 -41 -90l-174 -174q-41 -41 -100 -41v0zM622 322q-12 1 -20 10t-7 22q0 11 9 19t21 8h1h4q36 0 60 24l174 174q24 23 24 56q0 34 -24 58l-46 46q-23 24 -56.5 24t-57.5 -24l-174 -174q-22 -23 -24 -52
q0 -12 -9 -20t-21 -8h-1q-13 0 -21 9q-8 10 -8 22q3 52 41 91l174 174q41 41 99.5 41t99.5 -41l46 -46q41 -41 41 -100q0 -58 -41 -98l-174 -174q-41 -41 -100 -41h-10z" />
    <glyph glyph-name="arrow-right-alt" unicode="&#xe62b;" 
d="M960 384l-345 345v-207h-551v-276h551v-207z" />
    <glyph glyph-name="add-quer" unicode="&#xe64a;" 
d="M512 832q-129 0 -220 -91t-91 -220q0 -136 236 -481q73 -106 75 -104q1 0 32.5 43.5t77.5 113.5t91.5 147t77.5 154.5t32 126.5q0 129 -91 220t-220 91zM512 29q-60 84 -110 164q-147 236 -147 328q0 106 75.5 181t181.5 75t181.5 -75t75.5 -181q0 -91 -144 -323
q-50 -80 -113 -169zM545 684h-60v-136h-137v-60h137v-131h60v131h131v60h-131v136z" />
    <glyph glyph-name="up1" unicode="&#xe64f;" 
d="M512 832l-392 -432h203v-464h378v464h203z" />
    <glyph glyph-name="down1" unicode="&#xe650;" 
d="M701 368v464h-378v-464h-203l392 -432l392 432h-203z" />
    <glyph glyph-name="up-alt" unicode="&#xe9ac;" 
d="M531 -52v826l324 -324q5 -5 13 -5t13.5 5.5t5.5 13.5t-6 13l-353 353q-6 9 -16 9q-6 0 -12 -5v1l-1 -1v0l-357 -357q-5 -5 -5 -13t5.5 -13.5t13.5 -5.5t13 5l324 324v-826q0 -8 6 -13.5t13.5 -5.5t13 5.5t5.5 13.5v0z" />
    <glyph glyph-name="right-alt" unicode="&#xe9ad;" 
d="M76 365h826l-324 -324q-5 -5 -5 -13t5.5 -13.5t13.5 -5.5t13 6l353 353q9 6 9 16q0 6 -5 12h1l-1 1v0l-357 357q-5 5 -13 5t-13.5 -5.5t-5.5 -13.5t5 -13l324 -324h-826q-8 0 -13.5 -6t-5.5 -13.5t5.5 -13t13.5 -5.5v0z" />
    <glyph glyph-name="down-alt" unicode="&#xe9ae;" 
d="M493 820v-826l-324 324q-5 5 -13 5t-13.5 -5.5t-5.5 -13.5t6 -13l353 -353q6 -9 16 -9q6 0 12 5v-1l1 1v0l357 357q5 5 5 13t-5.5 13.5t-13.5 5.5t-13 -5l-324 -324v826q0 8 -6 13.5t-13.5 5.5t-13 -5.5t-5.5 -13.5z" />
    <glyph glyph-name="arrow-average" unicode="&#xe65f;" 
d="M422 100l-250 250h680l-250 -250q-10 -10 -10 -24t10 -24t24 -10t24 10l309 308q10 10 10 24v0q0 15 -11 24l-308 308q-10 10 -24 10t-24 -9.5t-10 -24t10 -24.5l250 -250h-680l250 250q10 10 10 24.5t-10 24t-24 9.5t-24 -10l-308 -308q-10 -10 -10 -24v0q0 -14 10 -24
l308 -309q10 -9 24 -9t24 10t10 24t-10 24z" />
    <glyph glyph-name="modular1" unicode="&#xe663;" 
d="M415 832h-232q-33 0 -56 -23.5t-23 -56.5v-736q0 -33 23 -56.5t56 -23.5h232q33 0 56.5 23.5t23.5 56.5v736q0 33 -23.5 56.5t-56.5 23.5v0zM438 20q0 -10 -7 -17.5t-17 -7.5h-229q-11 0 -18 7.5t-7 17.5v728q0 10 7 17.5t18 7.5h229q10 0 17 -7.5t7 -17.5v-728zM841 832
h-233q-32 0 -55.5 -23.5t-23.5 -56.5v-736q0 -33 23.5 -56.5t55.5 -23.5h233q33 0 56 23.5t23 56.5v736q0 33 -23 56.5t-56 23.5v0zM864 20q0 -10 -7 -17.5t-18 -7.5h-229q-10 0 -17.5 7.5t-7.5 17.5v728q0 10 7.5 17.5t17.5 7.5h229q11 0 18 -7.5t7 -17.5v-728z" />
    <glyph glyph-name="custom" unicode="&#xe664;" 
d="M831 131q0 -45 -31.5 -76.5t-76.5 -31.5h-496q-44 0 -75.5 31.5t-31.5 76.5v495q0 45 31.5 76.5t75.5 31.5h387l55 55h-442q-67 0 -114.5 -47.5t-47.5 -115.5v-495q0 -68 47.5 -115.5t114.5 -47.5h496q67 0 115 47.5t48 115.5v386l-55 -55v-331zM329 206zM948 730l-92 91
q-12 12 -28.5 11.5t-28.5 -12.5l-44 -44l147 -147l44 44q12 12 12.5 29t-10.5 28zM879 607l-147 146l-324 -322l148 -146zM329 206l206 59l-147 146z" />
    <glyph glyph-name="modular3" unicode="&#xe667;" 
d="M274 832h-91q-33 0 -56 -23.5t-23 -56.5v-736q0 -33 23 -56.5t56 -23.5h91q32 0 55.5 23.5t23.5 56.5v736q0 33 -23.5 56.5t-55.5 23.5v0zM297 20q0 -10 -7.5 -17.5t-17.5 -7.5h-87q-11 0 -18 7.5t-7 17.5v728q0 10 7 17.5t18 7.5h87q10 0 17.5 -7.5t7.5 -17.5v-728z
M841 832h-91q-32 0 -55.5 -23.5t-23.5 -56.5v-736q0 -33 23.5 -56.5t55.5 -23.5h91q33 0 56 23.5t23 56.5v736q0 33 -23 56.5t-56 23.5v0zM864 20q0 -10 -7 -17.5t-18 -7.5h-87q-10 0 -17.5 7.5t-7.5 17.5v728q0 10 7.5 17.5t17.5 7.5h87q11 0 18 -7.5t7 -17.5v-728z
M557 832h-90q-33 0 -56.5 -23.5t-23.5 -56.5v-736q0 -33 23.5 -56.5t56.5 -23.5h90q33 0 56.5 23.5t23.5 56.5v736q0 33 -23.5 56.5t-56.5 23.5v0zM580 20q0 -10 -7 -17.5t-17 -7.5h-88q-10 0 -17 7.5t-7 17.5v728q0 10 7 17.5t17 7.5h88q10 0 17 -7.5t7 -17.5v-728z" />
    <glyph glyph-name="modular2" unicode="&#xe669;" 
d="M274 832h-91q-33 0 -56 -23.5t-23 -56.5v-736q0 -33 23 -56.5t56 -23.5h91q32 0 55.5 23.5t23.5 56.5v736q0 33 -23.5 56.5t-55.5 23.5v0zM297 20q0 -10 -7.5 -17.5t-17.5 -7.5h-87q-11 0 -18 7.5t-7 17.5v728q0 10 7 17.5t18 7.5h87q10 0 17.5 -7.5t7.5 -17.5v-728z
M841 832h-374q-33 0 -56.5 -23.5t-23.5 -56.5v-736q0 -33 23.5 -56.5t56.5 -23.5h374q33 0 56 23.5t23 56.5v736q0 33 -23 56.5t-56 23.5v0zM864 20q0 -10 -7 -17.5t-18 -7.5h-371q-10 0 -17 7.5t-7 17.5v728q0 10 7 17.5t17 7.5h371q11 0 18 -7.5t7 -17.5v-728z" />
    <glyph glyph-name="slide" unicode="&#xe66a;" 
d="M441.5 385q46.5 0 79.5 32.5t33 79t-33 79.5t-79.5 33t-79.5 -33t-33 -79.5t33 -79t79.5 -32.5zM442 553q23 0 39.5 -16.5t16.5 -39.5t-16.5 -39.5t-39.5 -16.5t-39.5 16.5t-16.5 39.5t16.5 39.5t39.5 16.5v0zM880 690h-41v6q0 33 -23.5 56t-56.5 24h-494
q-33 -1 -56.5 -24t-23.5 -56v-6h-41q-33 0 -56.5 -23t-23.5 -56v-454q0 -33 23.5 -56t56.5 -23h41v-6q0 -33 23.5 -56t56.5 -23h494q33 0 56 23t24 56v6h41q33 0 56.5 23t23.5 56v454q0 33 -23.5 56t-56.5 23v0zM266 716h492q10 0 17 -7t7 -17v-371q-67 45 -149 47
q-28 2 -64.5 -11.5t-59 -27t-62.5 -39.5q-69 -45 -98 -53q-46 -12 -107 29v426q0 10 7 17t17 7zM145 137q-10 0 -17 7t-7 17v446q0 10 7 17t17 7h40v-494h-40zM758 52h-492q-10 0 -17 7t-7 17v127q45 -23 87 -23v0q18 0 34 4q38 10 115 60q35 24 55 36t51 23t57 9
q60 -4 111 -37q45 -31 72 -77l-42 -122q0 -10 -7 -17t-17 -7zM903 161q0 -10 -7 -17t-17 -7h-40v494h40q10 0 17 -7t7 -17v-446z" />
    <glyph glyph-name="floor" unicode="&#xe66d;" 
d="M501 409q-41 0 -75 13l-328 122q-27 9 -41.5 24.5t-17.5 26t-2 20.5q1 27 26 47q20 16 54 25l328 82q54 13 109 0l350 -82q38 -9 60 -28t23 -44q1 -11 -2 -21.5t-18.5 -26t-43.5 -25.5l-350 -121q-32 -12 -72 -12zM92 612q2 -8 25 -17l328 -122q24 -8 54.5 -8.5t55.5 8.5
l350 121q26 9 28 18q-1 2 -4 5t-13 8t-24 9l-351 82q-42 10 -83 -1l-328 -82q-13 -3 -22.5 -8t-12.5 -8t-3 -5zM148 500l-31 -8q-34 -8 -54 -25q-25 -20 -26 -46q-1 -10 2 -20.5t17.5 -26t41.5 -25.5l328 -121q34 -13 75 -13q40 0 72 11l350 122q28 10 43.5 25.5t18.5 26
t2 21.5q-1 25 -23 44t-60 28l-30 7l-97 -34l115 -27q14 -3 24 -8t13 -8t3 -5q-1 -9 -27 -18l-350 -122q-25 -8 -55.5 -8t-54.5 9l-328 122q-23 9 -25 17q0 2 3 5t12.5 8t22.5 8l109 27zM148 305l-31 -8q-34 -8 -54 -25q-25 -20 -26 -46q-1 -10 2 -20.5t17.5 -26t41.5 -25.5
l328 -121q34 -13 75 -13q40 0 72 11l350 122q28 10 43.5 25.5t18.5 26t2 20.5q-1 26 -23 45t-60 28l-30 7l-97 -34l115 -27q14 -3 24 -8t13 -8.5t3 -4.5q-1 -9 -27 -18l-350 -122q-25 -8 -55.5 -8t-54.5 9l-328 122q-23 9 -25 17q0 2 3 5t12.5 8t22.5 8l109 27z" />
    <glyph glyph-name="visual-con" unicode="&#xe665;" 
d="M936 838h-848q-14 0 -24 -10t-10 -25v-838q0 -15 10 -25t24 -10h848q14 0 24 10t10 25v838q0 15 -10 25t-24 10zM912 50v-62h-800v62h800zM112 517h170v-409h-170v409zM912 108h-128v409h128v-409zM112 575v40h800v-40h-800zM912 663h-800v117h800v-117z" />
    <glyph glyph-name="visual-top" unicode="&#xe66f;" 
d="M936 838h-848q-14 0 -24 -10t-10 -25v-838q0 -15 10 -25t24 -10h848q14 0 24 10t10 25v838q0 15 -10 25t-24 10zM112 -12v62h800v-62h-800zM292 108v409h434v-409h-434zM112 517h122v-409h-122v409zM912 108h-128v409h128v-409zM912 575h-800v30h800v-30z" />
    <glyph glyph-name="email-alts" unicode="&#xe675;" horiz-adv-x="1365" 
d="M1350 822q-24 44 -69 63q62 -36 77 -83zM0 769q4 59 50 96q-48 -41 -50 -100v4zM744 480l485 416h-1092q-31 0 -58 -13l473 -403q40 -41 97 -41q56 0 96 40zM79 884v0v0zM75 884q-31 -15 -51 -42q48 42 81 46zM1348 825l-604 -536q-40 -40 -96.5 -40t-96.5 40l-551 480
v-760q0 -57 40 -97t97 -40h1092v0q56 0 96 40t40 97v750q0 35 -16 64zM0 769z" />
    <glyph glyph-name="rotate-right" unicode="&#xe677;" 
d="M841.5 391q-20.5 0 -35 -14t-14.5 -34q0 -112 -82.5 -191.5t-198.5 -79.5t-198.5 79.5t-82.5 191.5t82.5 192t198.5 80v-80l198 127l-198 128v-80q-103 0 -190.5 -49t-138.5 -133.5t-51 -184t51 -184.5t138.5 -134t190.5 -49t190.5 49t138.5 134t51 184q0 20 -14.5 34
t-35 14z" />
  </font>
</defs>
</svg>
